<svg width="800" height="34" viewBox="0 0 800 34" fill="none" xmlns="http://www.w3.org/2000/svg">
<mask id="mask0_6_1057" style="mask-type:luminance" maskUnits="userSpaceOnUse" x="0" y="0" width="800" height="34">
<path d="M0.666748 0.785156H799.333V33.7799H0.666748V0.785156Z" fill="white"/>
</mask>
<g mask="url(#mask0_6_1057)">
<path d="M110.474 13.8893C112 15.8841 112.094 17.7591 110.755 19.5143C110.714 19.5195 110.672 19.5195 110.636 19.5195C110.75 19.3372 110.854 19.1445 110.943 18.9414C111.709 17.2695 111.505 15.3216 110.469 13.8893H110.474ZM8.80748 23.4466C9.09394 23.6081 9.38561 23.8268 9.67728 24.0924C9.40644 23.8424 9.10957 23.6237 8.80228 23.4466H8.80748ZM694.115 0.878906C660.375 0.878906 632.578 1.23828 610.729 1.96224C422.287 7.08724 323.037 9.97787 312.985 10.6289H312.979C292 11.306 266.057 12.306 235.141 13.6393C197.662 12.9622 177.781 12.5768 175.505 12.4883L175.391 12.4831C153.459 12.1237 141.406 11.9466 139.229 11.9466C139.115 11.9466 139.026 11.9466 138.969 11.9466C121.932 11.806 111.531 11.7383 107.771 11.7383C106.985 11.7383 106.485 11.7435 106.281 11.7487C106.229 11.7487 106.182 11.7539 106.136 11.7539H106.13C93.6981 11.8216 78.2971 11.9935 59.9377 12.2643C49.2398 12.2331 40.3596 12.1706 33.2919 12.0664H33.1669C32.8231 12.0664 32.4846 12.0716 32.146 12.0716C26.0627 12.0716 20.5471 11.5247 15.5992 10.4414C15.2346 10.3633 14.87 10.3216 14.5106 10.3216C12.1773 10.3216 10.0731 11.9414 9.55228 14.3112C8.95332 17.0508 10.6877 19.7591 13.4273 20.3581C19.0887 21.6029 25.3283 22.2227 32.146 22.2227C32.495 22.2227 32.8492 22.2227 33.2033 22.2174C36.4794 22.2695 40.146 22.306 44.1877 22.3372C38.3439 22.5768 32.4585 22.8112 26.5314 23.0456C20.8492 23.2747 16.4377 23.3893 13.3023 23.3893C10.8596 23.3893 9.18769 23.3216 8.29186 23.181C7.63561 22.8945 6.93769 22.7487 6.23457 22.7487C4.86999 22.7487 3.5054 23.2956 2.5054 24.3841C0.599152 26.4414 0.729359 29.6549 2.79186 31.556C3.57311 32.2799 4.58873 32.7799 5.83353 33.0508C7.22936 33.3529 9.97415 33.5039 14.0575 33.5039C17.4325 33.5039 21.7242 33.4049 26.9377 33.1966H26.9325C95.4273 30.4727 158.25 27.6341 215.401 24.6654C222.235 24.3633 228.86 24.0716 235.266 23.7956H235.271C242.917 23.9362 251.287 24.082 260.38 24.2435L260.396 24.2487C279.709 24.5404 302.328 24.7852 328.245 24.9727H328.25C361.891 25.181 400.084 25.3268 442.839 25.4154H442.88C519.849 24.8997 627.021 24.6393 764.401 24.6289H764.412L793.729 25.5612C793.781 25.5664 793.839 25.5664 793.891 25.5664C796.62 25.5664 798.875 23.3997 798.964 20.6497C799.052 17.8477 796.854 15.5039 794.052 15.4154L764.651 14.4727H764.49C662.781 14.4779 577.62 14.6237 509.011 14.9102C539.474 14.0664 573.479 13.1341 611.037 12.1133L611.068 12.1081C632.807 11.3893 660.485 11.0299 694.104 11.0299C704.807 11.0299 716.115 11.0664 728.021 11.1393H728.011L770.74 11.9518H770.75C772.641 11.9831 778.099 12.3008 787.12 12.9049C787.235 12.9154 787.349 12.9154 787.464 12.9154C790.115 12.9154 792.344 10.8633 792.526 8.18099C792.714 5.38411 790.599 2.96224 787.802 2.77474C778.625 2.16016 773.005 1.83203 770.932 1.80078L728.167 0.988281H728.099C716.172 0.915365 704.844 0.878906 694.115 0.878906Z" fill="#E2DAD4"/>
</g>
</svg>
