<svg width="1048" height="800" viewBox="0 0 1048 800" fill="none" xmlns="http://www.w3.org/2000/svg">
<path d="M2.53002 49.0264H1.66407C1.42262 49.0153 1.18656 49.1001 1.00728 49.2623C0.828012 49.4244 0.72005 49.6508 0.706909 49.8922L0.706909 92.8758C0.72005 93.1172 0.828012 93.3435 1.00728 93.5057C1.18656 93.6679 1.42262 93.7527 1.66407 93.7416H2.48852L2.48852 750.424C2.48816 781.812 24.1452 800 52.0328 800L997.75 799.985C1025.64 799.985 1047.29 781.797 1047.29 750.409V51.3698C1047.29 19.9855 1025.64 1.79606 997.75 1.79606L157.009 1.80877V0.965978C157.02 0.722539 156.936 0.484359 156.772 0.303335C156.609 0.1224 156.381 0.0133472 156.138 2.24552e-05H120.689C120.446 0.0132595 120.217 0.122224 120.054 0.303248C119.891 0.484271 119.806 0.722539 119.818 0.965978V1.80929L112.298 1.80947V0.965978C112.31 0.722539 112.225 0.484359 112.062 0.303335C111.899 0.1224 111.671 0.0133472 111.427 2.24552e-05H75.9784C75.7351 0.0132595 75.5069 0.122224 75.3437 0.303248C75.1805 0.484271 75.0956 0.722539 75.1075 0.965978V1.80999L52.0328 1.81035C24.8525 1.81035 3.59046 19.0894 2.53002 49.0264Z" fill="#151515"/>
<rect x="34.1837" y="767.684" width="735.368" height="980.97" rx="18" transform="rotate(-90 34.1837 767.684)" fill="white"/>
</svg>
