<svg width="200" height="200" viewBox="0 0 200 200" fill="none" xmlns="http://www.w3.org/2000/svg">
<g clip-path="url(#clip0_6_744)">
<mask id="mask0_6_744" style="mask-type:luminance" maskUnits="userSpaceOnUse" x="-46" y="34" width="226" height="229">
<path d="M-45.3334 34.6667H180V262.667H-45.3334V34.6667Z" fill="white"/>
</mask>
<g mask="url(#mask0_6_744)">
<mask id="mask1_6_744" style="mask-type:luminance" maskUnits="userSpaceOnUse" x="-124" y="12" width="324" height="320">
<path d="M-12.9219 12L199.292 126.974L88.5937 331.297L-123.615 216.323L-12.9219 12Z" fill="white"/>
</mask>
<g mask="url(#mask1_6_744)">
<mask id="mask2_6_744" style="mask-type:luminance" maskUnits="userSpaceOnUse" x="-124" y="12" width="324" height="320">
<path d="M-12.9219 12L199.292 126.974L88.5937 331.297L-123.615 216.323L-12.9219 12Z" fill="white"/>
</mask>
<g mask="url(#mask2_6_744)">
<mask id="mask3_6_744" style="mask-type:luminance" maskUnits="userSpaceOnUse" x="-124" y="12" width="324" height="320">
<path d="M-12.9219 12L199.292 126.974L88.5937 331.297L-123.615 216.323L-12.9219 12Z" fill="white"/>
</mask>
<g mask="url(#mask3_6_744)">
<path d="M-12.1198 260.729C-16.1719 250.234 -19.7917 239.568 -23.1302 228.823C-27.5469 214.609 -31.4219 200.229 -34.6406 185.698C-38.125 169.995 -40.8333 154.089 -42.2292 138.052C-43.5365 123.052 -43.7292 107.792 -41.4011 92.875C-39.4167 80.1875 -35.4531 67.3906 -27.6406 57.026C-19.9219 46.7865 -8.79168 40.2604 3.65103 37.5573C11.8177 35.7813 20.5521 35.1406 28.6354 37.5729C37.4271 40.2135 44.6146 46.3698 49.8698 53.7552C55.6094 61.8229 59.2031 71.3073 61.4583 80.901C63.8281 90.9531 64.6719 101.391 64.125 111.703C63.9062 115.844 63.4219 119.974 62.6719 124.052C62.5833 124.542 63.1667 124.885 63.5312 124.516C74.7396 113.083 88.4792 104.031 104.021 99.8281C116.594 96.4271 130.083 96.4323 142.51 100.432C153.469 103.953 163.484 110.734 170.172 120.182C176.911 129.693 179.615 141.432 178.099 152.969C176.089 168.234 167.406 181.901 157.052 192.943C142.849 208.094 124.589 219.021 105.854 227.615C85.6875 236.859 64.3802 243.51 42.901 248.917C24.526 253.542 5.92186 257.177 -12.7448 260.385C-13.3906 260.495 -13.0938 261.469 -12.4583 261.359C7.60936 257.906 27.6042 253.953 47.3229 248.833C68.6302 243.297 89.7083 236.417 109.63 226.964C128.057 218.214 145.839 207 159.557 191.708C169.432 180.703 177.458 167.177 179.198 152.271C180.536 140.818 177.734 129.25 171.135 119.792C164.552 110.359 154.729 103.594 143.937 99.8438C131.776 95.6146 118.464 95.3594 105.974 98.2917C90.7292 101.87 76.9948 110.25 65.6927 120.964C64.7083 121.896 63.75 122.849 62.7969 123.818C63.0833 123.974 63.3698 124.125 63.6562 124.281C65.4635 114.479 65.7083 104.406 64.7292 94.5052C63.7292 84.4271 61.3906 74.4063 57.349 65.1146C53.6927 56.7135 48.4792 48.7969 41.2344 43.0833C34.151 37.5052 25.2187 34.5938 16.1979 34.9792C2.82291 35.5469 -10.4636 39.4167 -20.7813 48.2292C-30.2396 56.3021 -36.0938 67.6771 -39.5052 79.474C-43.5 93.2656 -44.4323 107.854 -44.125 122.141C-43.7865 138.036 -41.7761 153.875 -38.9427 169.505C-36.1667 184.818 -32.5261 199.969 -28.3021 214.943C-24.8229 227.276 -20.9375 239.495 -16.6094 251.552C-15.474 254.719 -14.3021 257.875 -13.0886 261.016C-12.8542 261.62 -11.8802 261.339 -12.1198 260.729Z" fill="white"/>
</g>
</g>
</g>
</g>
<mask id="mask4_6_744" style="mask-type:luminance" maskUnits="userSpaceOnUse" x="-52" y="38" width="224" height="229">
<path d="M-52 38.6667H172V266.667H-52V38.6667Z" fill="white"/>
</mask>
<g mask="url(#mask4_6_744)">
<mask id="mask5_6_744" style="mask-type:luminance" maskUnits="userSpaceOnUse" x="-124" y="12" width="324" height="320">
<path d="M-12.9219 12L199.292 126.974L88.5937 331.297L-123.615 216.323L-12.9219 12Z" fill="white"/>
</mask>
<g mask="url(#mask5_6_744)">
<mask id="mask6_6_744" style="mask-type:luminance" maskUnits="userSpaceOnUse" x="-124" y="12" width="324" height="320">
<path d="M-12.9219 12L199.292 126.974L88.5937 331.297L-123.615 216.323L-12.9219 12Z" fill="white"/>
</mask>
<g mask="url(#mask6_6_744)">
<mask id="mask7_6_744" style="mask-type:luminance" maskUnits="userSpaceOnUse" x="-124" y="12" width="324" height="320">
<path d="M-12.9219 12L199.292 126.974L88.5937 331.297L-123.615 216.323L-12.9219 12Z" fill="white"/>
</mask>
<g mask="url(#mask7_6_744)">
<path d="M-15.7656 264.193C-19.8073 253.74 -23.5833 243.177 -27.099 232.536C-31.7552 218.458 -35.9531 204.224 -39.5313 189.833C-43.4011 174.302 -46.5573 158.557 -48.4427 142.651C-50.1979 127.818 -50.9115 112.688 -49.1198 97.8177C-47.6146 85.2708 -44.1927 72.5729 -36.8802 62.0938C-29.7031 51.8125 -18.9375 45.1406 -6.83335 42.2708C1.34895 40.3333 10.0989 39.6979 18.3489 41.474C27.6875 43.4844 35.974 48.651 42.474 55.5677C56.099 70.0677 61.8646 91.3229 60.7604 110.891C60.5833 114.021 60.1979 117.135 59.6302 120.219C59.5417 120.708 60.125 121.052 60.4896 120.688C71.5417 109.411 85.1562 100.401 100.661 96.8073C113.005 93.9427 126.151 94.8646 137.807 99.8958C148.521 104.521 157.646 112.536 163.396 122.714C169.458 133.443 171.234 146.068 169.047 158.151C166.177 173.964 156.984 188 145.87 199.302C131.234 214.182 112.74 224.865 93.8073 233.286C73.5417 242.302 52.2031 248.797 30.6979 254.083C13.25 258.38 -4.40105 261.802 -22.1042 264.849C-22.7448 264.958 -22.4479 265.927 -21.8125 265.818C-1.7448 262.365 18.25 258.411 37.9687 253.292C59.276 247.755 80.3542 240.88 100.276 231.422C118.703 222.672 136.484 211.464 150.203 196.167C160.385 184.823 168.38 170.927 170.464 155.651C172.099 143.667 169.766 131.385 163.568 120.99C157.609 111 148.323 103.219 137.635 98.724C126.016 93.8385 113.042 93.0208 100.776 95.7448C85.5052 99.1354 71.9427 107.901 60.9219 118.813C60.5312 119.198 60.1458 119.589 59.7604 119.984C60.0469 120.141 60.3333 120.292 60.6146 120.448C64.1667 101.161 60.4844 80.0625 49.8906 63.5C44.8854 55.6771 38.1094 48.9323 29.8542 44.5885C21.5104 40.1979 12.2031 38.8698 2.8854 39.7031C-9.96876 40.8542 -22.4948 45.375 -31.8229 54.5417C-40.5781 63.1354 -45.5573 74.7813 -48.2292 86.5885C-51.4011 100.573 -51.6146 115.151 -50.6875 129.401C-49.6511 145.219 -47.0573 160.917 -43.7031 176.391C-40.4427 191.458 -36.3906 206.354 -31.8333 221.078C-28.125 233.057 -24.0625 244.932 -19.6927 256.682C-18.724 259.292 -17.7344 261.891 -16.7344 264.479C-16.5 265.089 -15.5261 264.802 -15.7656 264.193Z" fill="white"/>
</g>
</g>
</g>
</g>
<mask id="mask8_6_744" style="mask-type:luminance" maskUnits="userSpaceOnUse" x="-55" y="44" width="229" height="228">
<path d="M-54.6666 44H173.333V272H-54.6666V44Z" fill="white"/>
</mask>
<g mask="url(#mask8_6_744)">
<mask id="mask9_6_744" style="mask-type:luminance" maskUnits="userSpaceOnUse" x="-124" y="12" width="324" height="320">
<path d="M-12.9218 12L199.292 126.974L88.5938 331.297L-123.615 216.323L-12.9218 12Z" fill="white"/>
</mask>
<g mask="url(#mask9_6_744)">
<mask id="mask10_6_744" style="mask-type:luminance" maskUnits="userSpaceOnUse" x="-124" y="12" width="324" height="320">
<path d="M-12.9218 12L199.292 126.974L88.5938 331.297L-123.615 216.323L-12.9218 12Z" fill="white"/>
</mask>
<g mask="url(#mask10_6_744)">
<mask id="mask11_6_744" style="mask-type:luminance" maskUnits="userSpaceOnUse" x="-124" y="12" width="324" height="320">
<path d="M-12.9218 12L199.292 126.974L88.5938 331.297L-123.615 216.323L-12.9218 12Z" fill="white"/>
</mask>
<g mask="url(#mask11_6_744)">
<path d="M-19.6458 271.354C-23.7083 260.839 -27.4896 250.214 -31.0104 239.505C-35.6354 225.427 -39.7916 211.188 -43.3281 196.797C-47.1406 181.271 -50.2343 165.542 -52.0521 149.651C-53.7552 134.797 -54.3958 119.661 -52.5573 104.781C-51 92.1459 -47.526 79.3906 -40.2343 68.7969C-33.0833 58.4167 -22.3958 51.4948 -10.276 48.3542C-2.3281 46.2969 6.28128 45.4271 14.4115 46.7031C23.8177 48.1771 32.4011 52.7292 39.2917 59.2396C53.6302 72.7969 60.2761 93.5052 60.3959 112.896C60.4219 117.802 59.9948 122.714 59.1042 127.542C59.0157 128.026 59.599 128.375 59.9636 128.005C70.9844 116.766 84.4948 107.724 99.8907 103.896C112.167 100.839 125.302 101.427 137.099 106.063C147.901 110.313 157.302 117.885 163.547 127.698C170.021 137.88 172.651 150.109 171.344 162.089C169.688 177.224 162.094 191.063 152.339 202.51C139.203 217.932 121.818 229.177 103.661 237.802C84.2188 247.036 63.5 253.417 42.6459 258.547C22.9375 263.396 2.96357 267.01 -17.0208 270.453C-18.1093 270.641 -19.1927 270.828 -20.276 271.016C-20.9166 271.125 -20.6198 272.094 -19.9843 271.984C-0.177056 268.583 19.6198 265.068 39.1823 260.422C60 255.484 80.625 249.307 100.172 240.521C118.526 232.276 136.12 221.484 149.958 206.698C160.521 195.406 169.005 181.552 171.771 166.177C173.917 154.24 172.24 141.828 166.646 131.052C161.333 120.818 152.661 112.542 142.411 107.344C131.427 101.766 118.813 99.9167 106.635 101.573C91.8959 103.583 78.349 110.615 67.0157 120.083C64.2969 122.354 61.7084 124.776 59.2292 127.302C59.5157 127.458 59.8021 127.615 60.0886 127.766C63.625 108.563 60.1198 87.6667 49.9532 70.9584C45.1407 63.0521 38.625 56.1354 30.6198 51.4375C22.4479 46.6354 12.9896 44.6459 3.56774 45.2188C-9.66143 46.0261 -22.7812 50.0469 -32.8646 58.9375C-42.0625 67.0469 -47.6458 78.3646 -50.7812 90.0573C-54.4583 103.75 -55.0625 118.177 -54.4635 132.276C-53.7864 148.031 -51.4531 163.693 -48.3281 179.13C-45.25 194.354 -41.3229 209.406 -36.8593 224.281C-33.1458 236.667 -29.0364 248.938 -24.5885 261.083C-23.2968 264.615 -21.9739 268.135 -20.6146 271.646C-20.3802 272.25 -19.4062 271.964 -19.6458 271.354Z" fill="white"/>
</g>
</g>
</g>
</g>
<mask id="mask12_6_744" style="mask-type:luminance" maskUnits="userSpaceOnUse" x="-172" y="104" width="262" height="282">
<path d="M-171.505 104.573H89.7968V385.818H-171.505V104.573Z" fill="white"/>
</mask>
<g mask="url(#mask12_6_744)">
<path d="M-52.5052 104.557C-48.8958 104.708 -45.276 104.729 -41.6771 105.042C-35.4687 105.578 -29.3021 106.448 -23.2135 107.865C-18.9271 108.865 -14.5781 109.609 -10.2969 110.615C6.50001 114.563 21.599 122.047 35.1302 132.74C49.375 143.995 60.6719 157.75 69.5313 173.573C73.6354 180.906 77.125 188.521 79.9219 196.448C82.1875 202.849 84.0313 209.37 85.224 216.057C86.0261 220.531 86.6719 225.036 87.3542 229.536C87.8281 232.661 88.3021 235.792 88.6667 238.932C88.9583 241.417 89.1511 243.917 89.2708 246.417C89.4896 251.063 89.7604 255.708 89.75 260.359C89.7448 264.734 89.5156 269.115 89.1719 273.479C88.7708 278.495 88.0573 283.474 87.1823 288.438C85.5052 297.922 82.9115 307.13 79.2917 316.042C76.6823 322.448 73.5729 328.604 69.8438 334.448C67.5521 338.026 65.0521 341.438 62.4531 344.797C59.0313 349.219 55.0625 353.115 51.0417 356.948C48.2344 359.62 45.1458 361.984 42.0052 364.276C37.1563 367.807 32.0625 370.917 26.7188 373.609C22.6771 375.651 18.5208 377.448 14.25 378.964C9.51563 380.646 4.71354 382.094 -0.21875 383.063C-3.21354 383.646 -6.21874 384.208 -9.23957 384.615C-12.5885 385.068 -15.9531 385.469 -19.3229 385.641C-22.8854 385.818 -26.4635 385.724 -30.0312 385.703C-34.4479 385.677 -38.8333 385.208 -43.2135 384.682C-56.4479 383.104 -69.2604 379.797 -81.8073 375.37C-93.0573 371.401 -103.891 366.531 -114.161 360.443C-123 355.208 -131.146 349.068 -138.302 341.656C-145.016 334.698 -150.479 326.844 -154.969 318.286C-159.495 309.672 -162.813 300.604 -165.115 291.161C-166.203 286.698 -167.063 282.188 -167.661 277.625C-168.135 274 -168.521 270.37 -168.776 266.724C-169.141 261.448 -169.089 256.177 -168.995 250.896C-168.974 249.885 -169.229 248.865 -169.375 247.854C-169.776 245.073 -170.208 242.297 -170.594 239.516C-171.021 236.417 -171 233.281 -171.224 230.172C-171.479 226.672 -171.224 223.193 -171.026 219.729C-170.594 212.156 -169.37 204.688 -167.521 197.323C-165.781 190.391 -163.547 183.615 -160.755 177.036C-158.307 171.276 -155.469 165.708 -152.255 160.333C-149.688 156.036 -146.854 151.938 -143.844 147.958C-142.375 146.026 -140.776 144.177 -139.125 142.391C-136.672 139.74 -134.167 137.13 -131.604 134.583C-129.385 132.365 -126.932 130.411 -124.484 128.443C-121.708 126.203 -118.818 124.13 -115.813 122.234C-111.573 119.557 -107.177 117.172 -102.609 115.078C-96.3854 112.229 -89.9531 110.01 -83.3385 108.323C-80.099 107.495 -76.7865 106.943 -73.4896 106.339C-71.1771 105.922 -68.8542 105.531 -66.5208 105.307C-62.5729 104.932 -58.6198 104.62 -54.6458 104.677C-53.9323 104.688 -53.2187 104.677 -52.5052 104.677C-52.5052 104.635 -52.5052 104.599 -52.5052 104.557ZM70.5 233.979C70.5573 233.974 70.6146 233.974 70.6667 233.974C70.5469 231.115 70.4531 228.255 70.2969 225.401C70.1563 222.906 69.9792 220.411 69.75 217.922C69.1563 211.422 68.0417 205.01 66.5104 198.667C64.9688 192.276 64.901 192.161 61.3906 186.568C61.2448 186.339 61.0885 186.12 60.9479 185.896C52.849 173.073 42.9271 161.896 30.9375 152.609C16.9844 141.802 1.40105 134.38 -15.7396 130.281C-24.7396 128.125 -33.8698 126.927 -43.1406 126.995C-46.6198 127.016 -50.099 127.156 -53.5729 127.276C-54.5937 127.307 -55.6302 127.365 -56.625 127.573C-61.4062 128.573 -66.1302 129.776 -70.7917 131.234C-77.4635 133.313 -83.974 135.786 -90.3333 138.703C-94.7344 140.729 -99.0365 142.932 -103.224 145.354C-107.438 147.786 -111.547 150.411 -115.448 153.339C-117.885 155.172 -120.432 156.875 -122.464 159.198C-123.693 160.599 -124.938 161.984 -126.125 163.411C-127.682 165.281 -129.219 167.161 -130.708 169.083C-134.661 174.161 -137.943 179.672 -140.849 185.401C-144.073 191.75 -146.635 198.354 -148.635 205.182C-149.99 209.786 -151.073 214.448 -151.875 219.177C-152.458 222.609 -152.984 226.042 -153.208 229.516C-153.443 233.208 -153.734 236.901 -153.875 240.599C-153.953 242.786 -153.828 244.979 -153.729 247.167C-153.568 250.651 -153.464 254.141 -153.141 257.609C-152.573 263.651 -151.656 269.651 -150.417 275.594C-148.906 282.839 -146.964 289.979 -144.542 296.979C-144.016 298.484 -143.521 299.979 -142.458 301.276C-137.391 307.432 -131.995 313.26 -126.167 318.698C-118.198 326.125 -109.661 332.792 -100.385 338.484C-91.3333 344.042 -81.7865 348.484 -71.5781 351.443C-66.7812 352.828 -61.9323 353.99 -56.9687 354.589C-54.0104 354.948 -51.0469 355.344 -48.0729 355.557C-45.4479 355.745 -42.8073 355.771 -40.1771 355.734C-37.3281 355.693 -34.474 355.51 -31.625 355.359C-30.3854 355.292 -29.1406 355.177 -27.901 355.036C-27.026 354.938 -26.125 354.859 -25.2917 354.594C-21.125 353.234 -16.9271 351.948 -12.8333 350.391C-7.41666 348.328 -2.10417 346.005 3.02083 343.276C6.31771 341.521 9.59896 339.734 12.8594 337.911C14.6927 336.885 16.5156 335.823 18.2708 334.667C21.0156 332.859 23.75 331.026 26.3958 329.078C29.0156 327.146 31.5521 325.099 34.0677 323.031C36.0885 321.37 38.1042 319.693 39.974 317.875C42.4948 315.417 44.901 312.839 47.3073 310.271C48.5781 308.911 49.8021 307.5 50.9479 306.036C52.526 304.026 54.0833 301.984 55.526 299.87C57.7656 296.583 59.9323 293.271 61.2083 289.422C63 284.026 64.6979 278.615 66.0104 273.083C67.099 268.49 68.0469 263.87 68.6823 259.188C69.0938 256.141 69.474 253.083 69.7761 250.021C70.0781 246.958 70.3281 243.896 70.4792 240.823C70.5938 238.547 70.5 236.26 70.5 233.979ZM31.3906 337.51C31.3333 337.453 31.276 337.396 31.2135 337.333C31.026 337.422 30.8333 337.495 30.6563 337.599C28.4896 338.854 26.3594 340.172 24.1563 341.349C19.5365 343.813 14.8125 346.068 9.96354 348.042C5.20313 349.984 0.364594 351.734 -4.59374 353.083C-8.41666 354.12 -12.2812 355.005 -16.1458 355.865C-18.5156 356.396 -20.9323 356.724 -23.3125 357.208C-24.7292 357.5 -26.125 357.922 -27.526 358.297C-32.4271 359.604 -37.3385 360.849 -42.375 361.542C-45.3646 361.953 -48.3385 362.5 -51.3333 362.807C-54.2135 363.099 -57.1146 363.219 -60.0104 363.307C-65.2812 363.464 -70.5208 363.073 -75.75 362.375C-81.2813 361.635 -86.6823 360.354 -91.9427 358.5C-106.005 353.542 -117.469 344.953 -126.688 333.286C-133.63 324.5 -138.865 314.729 -143.24 304.458C-143.969 302.74 -144.469 300.922 -145.635 299.401C-149.74 294.036 -153.422 288.396 -156.651 282.458C-157.495 280.917 -158.333 279.37 -159.172 277.823C-159.224 278.484 -159.104 279.089 -158.932 279.672C-158.188 282.198 -157.438 284.719 -156.667 287.229C-154.391 294.656 -151.667 301.911 -148.578 309.036C-144.641 318.115 -140.016 326.802 -134.234 334.849C-128.849 342.339 -122.609 349.005 -115.281 354.615C-103.26 363.813 -89.6094 369.344 -74.9479 372.542C-71.3437 373.328 -67.6927 373.932 -64.0417 374.474C-60.9635 374.932 -57.8542 375.208 -54.7552 375.51C-52.9844 375.682 -51.1979 375.807 -49.4167 375.833C-44.2865 375.911 -39.1562 376.026 -34.0312 375.938C-30.875 375.885 -27.7187 375.505 -24.5677 375.245C-22.5781 375.083 -20.5781 374.938 -18.599 374.661C-15.875 374.292 -13.1667 373.844 -10.4635 373.354C-7.56249 372.828 -4.65624 372.297 -1.78124 371.625C4.77084 370.104 11.224 368.224 17.5052 365.802C21.1927 364.385 24.8125 362.786 28.4115 361.156C30.4115 360.25 32.3229 359.151 34.2448 358.078C36.1615 357.01 38.0729 355.932 39.9219 354.75C42.849 352.88 45.7656 350.99 48.4219 348.729C50.474 346.99 52.625 345.359 54.5781 343.516C56.7135 341.495 58.7292 339.333 60.6875 337.141C62.3906 335.229 64.0208 333.234 65.5521 331.188C69.75 325.583 73.125 319.5 75.8438 313.057C77.9011 308.188 79.5677 303.182 80.7969 298.031C81.6771 294.349 82.4219 290.651 82.9427 286.901C83.4427 283.323 83.8958 279.74 83.974 276.12C83.9792 275.901 84.0104 275.677 84.0208 275.453C84.1146 273.141 84.2031 270.828 84.2969 268.51C84.2031 268.5 84.1094 268.49 84.0208 268.474C83.8281 269.135 83.625 269.792 83.4427 270.458C81.8906 276.083 79.9011 281.542 77.4479 286.833C75.5469 290.927 73.4479 294.927 71 298.724C68.75 302.219 66.4635 305.682 63.7344 308.833C61.5313 311.375 59.4271 314.01 57.1354 316.474C54.5573 319.24 51.8438 321.88 48.8906 324.255C47.3073 325.526 45.7552 326.823 44.2135 328.146C43.2396 328.979 42.2448 329.813 41.3854 330.76C39.9271 332.37 38.6719 334.172 37.151 335.708C33.7292 339.151 30.4792 342.776 26.625 345.771C23.9427 347.859 21.3854 350.12 18.599 352.063C13.4063 355.682 7.96875 358.911 2.19271 361.547C-1.89583 363.417 -6.06249 365.047 -10.3542 366.349C-13.724 367.37 -17.125 368.286 -20.6198 368.786C-23.5156 369.198 -26.3958 369.74 -29.3021 370.063C-31.6042 370.318 -33.9323 370.276 -36.2448 370.438C-42.276 370.865 -48.2865 370.302 -54.3021 370.073C-55.5469 370.026 -56.7865 369.87 -58.0312 369.745C-60.3333 369.516 -62.6406 369.281 -64.9427 369.036C-66.6719 368.854 -68.3958 368.661 -70.1198 368.443C-70.651 368.375 -71.1615 368.219 -71.3906 367.615C-71.6354 366.974 -71.9219 366.344 -72.2656 365.542C-71.3698 365.583 -70.5781 365.578 -69.7917 365.667C-67.8437 365.875 -65.9062 366.161 -63.9583 366.354C-61.6094 366.589 -59.2552 366.797 -56.901 366.958C-53.0781 367.224 -49.25 367.552 -45.4219 367.646C-41.9479 367.729 -38.4635 367.589 -34.9896 367.448C-32.4115 367.344 -29.8229 367.203 -27.2656 366.865C-24.2865 366.469 -21.3281 365.891 -18.3802 365.302C-11.8906 364.01 -5.67188 361.849 0.328125 359.099C5.15625 356.891 9.83333 354.365 14.2396 351.365C17.6927 349.016 21.1094 346.63 24.2604 343.88C25.0938 343.151 25.9427 342.443 26.7708 341.703C28.3177 340.313 29.849 338.911 31.3906 337.51ZM-43.3385 107.714C-43.3229 107.594 -43.3125 107.479 -43.3021 107.365C-46.9583 107.339 -50.6146 107.219 -54.2656 107.313C-58.0469 107.406 -61.8385 107.609 -65.6042 107.958C-68.4687 108.224 -71.3021 108.807 -74.151 109.229C-78.2083 109.828 -82.1771 110.844 -86.1146 111.958C-91.7813 113.568 -97.2969 115.615 -102.615 118.156C-106.453 119.995 -110.234 121.958 -113.792 124.313C-116.172 125.891 -118.578 127.448 -120.844 129.182C-123.568 131.276 -126.292 133.406 -128.781 135.776C-132.714 139.51 -136.599 143.313 -139.896 147.656C-141.578 149.88 -143.354 152.042 -144.938 154.328C-146.854 157.094 -148.672 159.927 -150.432 162.792C-153.792 168.24 -156.604 173.984 -159.031 179.896C-161.625 186.224 -163.797 192.698 -165.391 199.365C-166.552 204.214 -167.516 209.099 -168.135 214.047C-168.62 217.906 -169.042 221.776 -168.995 225.672C-168.938 230.141 -168.807 234.609 -168.693 239.078C-168.677 239.531 -168.516 239.979 -168.427 240.427C-167.995 238.318 -167.755 236.24 -167.63 234.156C-167.396 230.188 -167.354 226.203 -167 222.25C-166.63 218.172 -165.87 214.141 -164.958 210.141C-162.646 199.969 -158.755 190.448 -153.339 181.552C-151.292 178.188 -149.135 174.896 -146.594 171.87C-144.948 169.906 -143.411 167.844 -141.703 165.943C-140.099 164.156 -138.313 162.536 -136.641 160.813C-134.224 158.328 -131.672 156 -128.927 153.885C-126.411 151.943 -123.99 149.875 -121.396 148.052C-116.323 144.49 -111.063 141.224 -105.563 138.365C-101.865 136.443 -98.0885 134.635 -94.2604 132.979C-88.4531 130.469 -82.5156 128.255 -76.4323 126.51C-72.3385 125.339 -68.2135 124.24 -64.0573 123.307C-60.224 122.443 -56.3437 121.776 -52.4583 121.161C-49.8281 120.745 -47.1667 120.516 -44.5156 120.302C-40.7396 120 -36.9583 119.599 -33.1823 119.583C-28.2344 119.568 -23.2708 119.714 -18.3437 120.115C-14.1406 120.458 -9.94791 121.151 -5.79166 121.891C4.08855 123.656 13.5156 126.828 22.5156 131.281C22.9219 131.479 23.3542 131.635 23.7708 131.818C23.8177 131.729 23.8594 131.646 23.9063 131.557C21.401 129.849 18.9323 128.089 16.3854 126.448C7.67708 120.839 -1.68228 116.62 -11.5104 113.401C-16.4896 111.771 -21.5625 110.63 -26.7969 110.391C-31.5156 110.172 -36.25 110.141 -40.9792 110.094C-42.5781 110.078 -44.1875 110.214 -45.7812 110.385C-48.474 110.677 -51.1615 110.99 -53.8333 111.411C-57.0208 111.911 -60.2135 112.422 -63.3594 113.13C-69.0156 114.411 -74.5833 116.026 -79.9844 118.151C-83.6563 119.594 -87.2969 121.13 -90.8854 122.771C-93.4375 123.943 -95.8958 125.328 -98.3594 126.682C-100.125 127.651 -101.865 128.682 -103.557 129.776C-106.245 131.516 -108.943 133.25 -111.526 135.141C-113.911 136.88 -116.167 138.802 -118.448 140.677C-119.479 141.526 -120.464 142.427 -121.417 143.354C-123.104 145 -124.76 146.677 -126.417 148.349C-127.229 149.167 -128.016 150.01 -128.901 150.932C-129.245 150.313 -129.536 149.792 -129.844 149.229C-118.953 136.521 -105.615 127.182 -90.6615 120.026C-75.6875 112.859 -59.9167 108.745 -43.3385 107.714ZM-41.4531 358.615C-41.4479 358.536 -41.4427 358.453 -41.4375 358.375C-41.6146 358.354 -41.7917 358.318 -41.9687 358.318C-46.75 358.349 -51.4896 357.922 -56.2187 357.255C-60.4531 356.656 -64.6406 355.818 -68.7604 354.698C-79.224 351.859 -89.0729 347.557 -98.3854 342.005C-106.922 336.922 -114.859 331.021 -122.313 324.443C-128.354 319.115 -134.005 313.401 -139.286 307.318C-139.922 306.589 -140.552 305.844 -141.229 305.052C-141.266 305.25 -141.313 305.339 -141.292 305.411C-141.234 305.63 -141.167 305.844 -141.078 306.047C-136.589 316.693 -130.865 326.573 -123.109 335.203C-115.432 343.745 -106.344 350.26 -95.7031 354.594C-90.1927 356.833 -84.4948 358.417 -78.6354 359.323C-75.1198 359.87 -71.5625 360.281 -68.0156 360.427C-61.6875 360.693 -55.3542 360.583 -49.0677 359.677C-46.5312 359.313 -43.9948 358.969 -41.4531 358.615ZM-138.714 175.568C-138.776 175.5 -138.844 175.432 -138.906 175.365C-139.568 176.224 -140.255 177.063 -140.891 177.938C-143.026 180.901 -145.271 183.797 -147.245 186.87C-150.302 191.635 -152.99 196.625 -155.297 201.813C-157.12 205.906 -158.76 210.068 -160.151 214.323C-162.036 220.115 -163.51 226.016 -164.615 232.005C-165.073 234.5 -165.563 237 -165.438 239.563C-165.396 240.495 -165.313 241.427 -165.25 242.359C-165.12 244.458 -165.125 246.568 -164.849 248.641C-164.141 253.948 -163.375 259.245 -162.505 264.526C-162.141 266.755 -161.688 268.984 -160.807 271.109C-157.365 279.396 -152.896 287.094 -147.682 294.37C-147.443 294.703 -147.182 295.021 -146.927 295.344C-146.891 294.932 -146.958 294.589 -147.063 294.255C-148.359 289.854 -149.792 285.484 -150.927 281.042C-152.005 276.865 -152.911 272.625 -153.635 268.37C-154.375 263.979 -154.896 259.547 -155.339 255.115C-155.719 251.344 -155.938 247.547 -156.052 243.76C-156.146 240.771 -156.01 237.771 -155.922 234.776C-155.786 229.865 -155.25 224.995 -154.542 220.13C-153.76 214.755 -152.615 209.464 -151.135 204.245C-149.016 196.766 -146.203 189.547 -142.589 182.661C-141.333 180.276 -140.005 177.932 -138.714 175.568ZM72.4167 208.229C72.3177 208.25 72.2135 208.266 72.1146 208.286C72.125 208.505 72.1094 208.724 72.1563 208.932C73.1979 213.589 73.9844 218.286 74.6146 223.016C75.3281 228.339 75.5938 233.688 75.7708 239.042C75.8281 240.865 75.6406 242.698 75.6302 244.531C75.5938 249.578 75.0365 254.578 74.2865 259.568C73.6615 263.703 72.7604 267.776 71.6406 271.807C69.5677 279.276 66.6615 286.391 62.974 293.203C61.8594 295.26 61.0052 297.464 60.0938 299.625C57.224 306.417 53.7813 312.906 49.8594 319.146C49.6875 319.422 49.5156 319.698 49.3385 319.974C49.6094 320.01 49.7448 319.927 49.849 319.823C53.6771 315.974 57.6302 312.245 60.9479 307.911C62.6146 305.74 64.401 303.651 65.9635 301.401C69.7136 296.01 72.9636 290.328 75.6875 284.344C79.25 276.505 81.8073 268.354 83.4167 259.896C83.6146 258.849 83.8594 257.776 83.8021 256.724C83.6875 254.635 83.3698 252.557 83.1563 250.474C82.6146 245.188 81.6719 239.964 80.5573 234.776C79.2031 228.495 77.474 222.313 75.3542 216.24C74.4167 213.557 73.4011 210.901 72.4167 208.229ZM62.8021 339.719C62.7083 339.62 62.6094 339.521 62.5104 339.422C62.1979 339.797 61.9063 340.203 61.5573 340.547C58.5417 343.5 55.7344 346.677 52.3542 349.255C50.2188 350.885 48.1875 352.661 45.9844 354.198C42.2865 356.781 38.4792 359.219 34.4635 361.276C30.8698 363.12 27.2344 364.901 23.5313 366.5C18.5729 368.641 13.4792 370.448 8.28125 371.896C4.21354 373.031 0.0989689 374.016 -4.02082 374.938C-6.94791 375.594 -9.91666 376.068 -12.875 376.573C-15.1458 376.958 -17.4219 377.333 -19.7083 377.604C-22.0052 377.88 -24.3125 378.052 -26.6198 378.198C-29.776 378.401 -32.9375 378.667 -36.0937 378.677C-40.9583 378.703 -45.8177 378.583 -50.6771 378.432C-53.3021 378.349 -55.9323 378.172 -58.5365 377.839C-62.4635 377.333 -66.3646 376.651 -70.2812 376.052C-70.9271 375.953 -71.5729 375.865 -72.2187 375.776C-66.4635 377.75 -60.5885 379.177 -54.651 380.281C-50.1927 381.109 -45.6875 381.734 -41.1771 382.224C-37.1979 382.656 -33.1823 382.88 -29.1771 383.005C-24.6354 383.156 -20.0833 383.063 -15.5573 382.516C-12.9583 382.203 -10.3281 382.063 -7.74999 381.625C-4.36457 381.047 -0.994791 380.328 2.34375 379.531C9.63021 377.786 16.6458 375.266 23.401 372.016C27.2448 370.161 31.026 368.193 34.5938 365.844C36.9688 364.276 39.3646 362.714 41.6198 360.979C44.4479 358.802 47.25 356.557 49.8698 354.135C52.4167 351.781 54.7396 349.177 57.1198 346.641C58.4531 345.219 59.7188 343.734 60.9688 342.234C61.6302 341.443 62.1927 340.557 62.8021 339.719ZM-166.646 259.25C-166.703 259.26 -166.766 259.276 -166.828 259.286C-166.859 259.5 -166.922 259.714 -166.917 259.927C-166.802 263.276 -166.818 266.641 -166.516 269.979C-166.146 274.146 -165.552 278.297 -164.974 282.448C-164.234 287.708 -163.01 292.87 -161.542 297.974C-159.964 303.469 -158.01 308.823 -155.63 314.021C-151.557 322.911 -146.146 330.885 -139.5 338.031C-132.422 345.646 -124.276 351.922 -115.406 357.281C-115.125 357.448 -114.823 357.583 -114.531 357.734C-114.594 357.495 -114.719 357.375 -114.854 357.271C-120.49 352.974 -125.542 348.063 -130.052 342.589C-135.953 335.427 -140.828 327.583 -145.078 319.354C-151.521 306.875 -156.51 293.818 -160.453 280.339C-162.13 274.615 -163.125 268.698 -165.328 263.12C-165.828 261.854 -166.208 260.542 -166.646 259.25ZM41.2448 145.745C41.4375 145.974 41.6302 146.198 41.8177 146.432C43.6771 148.781 45.6094 151.073 47.375 153.484C56.3177 165.719 63.0365 179.104 67.8594 193.464C68.5938 195.661 69.151 197.948 70.1302 200.031C74.2656 208.802 77.724 217.823 80.3177 227.177C81.6563 231.995 82.8386 236.844 83.6823 241.771C84.0625 243.995 84.4583 246.219 84.849 248.438C85.1302 246.849 85.1823 245.25 85.3229 243.661C85.724 239.146 85.4063 234.63 85.2448 230.12C85.1823 228.25 85 226.37 84.6667 224.536C83.6927 219.182 82.474 213.885 80.9792 208.651C78.7292 200.74 75.9323 193.042 72.4219 185.604C67.3177 174.781 60.7865 164.922 52.6719 156.125C49.1823 152.339 45.4219 148.859 41.2448 145.745ZM62.5104 185.682C62.4635 185.479 62.4375 185.271 62.3646 185.078C61.6146 183.172 60.9115 181.245 60.0938 179.365C54.9635 167.578 47.8021 157.224 38.3333 148.51C27.9583 138.964 15.901 132.479 2.39583 128.62C-2.44271 127.234 -7.36457 126.24 -12.3646 125.589C-16.9219 125 -21.4896 124.615 -26.0833 124.578C-28 124.563 -29.9219 124.573 -31.8385 124.573C-32.3698 124.573 -32.901 124.573 -33.4271 124.573C-13.625 126.802 4.76042 133.026 21.5781 143.766C38.4531 154.547 51.8125 168.776 62.5104 185.682ZM-163.661 216.172C-161.974 211.339 -160.286 206.589 -158.286 201.938C-156.026 196.682 -153.411 191.615 -150.417 186.74C-147.797 182.484 -144.938 178.401 -141.776 174.516C-139.594 171.833 -137.365 169.203 -134.984 166.703C-133.411 165.047 -131.792 163.448 -130.156 161.859C-129.042 160.776 -127.896 159.719 -126.714 158.708C-125.375 157.563 -123.948 156.516 -122.625 155.349C-120.625 153.594 -118.729 151.719 -116.703 149.995C-114.724 148.323 -112.646 146.766 -110.594 145.177C-109.635 144.432 -108.641 143.74 -107.661 143.021C-107.917 142.922 -108.115 142.964 -108.276 143.057C-109.948 144.021 -111.651 144.938 -113.276 145.974C-118.464 149.286 -123.542 152.76 -128.167 156.854C-130.521 158.938 -132.901 161 -135.208 163.141C-136.313 164.167 -137.234 165.396 -138.302 166.464C-140.313 168.474 -142.109 170.661 -143.88 172.875C-146.729 176.438 -149.302 180.188 -151.646 184.099C-157.047 193.125 -160.792 202.813 -163.073 213.073C-163.302 214.099 -163.464 215.135 -163.661 216.172ZM-3.29166 349.698C-3.08332 349.682 -2.86457 349.708 -2.67187 349.646C2.10418 348.104 6.82292 346.417 11.4219 344.411C16.1406 342.359 20.75 340.094 25.2344 337.552C29.7448 334.995 34.0677 332.151 38.3177 329.203C39.0052 328.724 39.7031 328.198 40.224 327.563C41.5417 325.964 42.8073 324.323 44 322.63C46.625 318.917 49.0938 315.099 51.3125 311.12C51.599 310.609 52 310.13 52.0208 309.255C36.7344 327.297 17.7813 339.927 -3.29166 349.698ZM6.72396 118.573C7.03125 118.745 7.33854 118.927 7.65104 119.094C15.5 123.224 22.7917 128.172 29.4896 133.995C31.2083 135.49 32.8594 137.089 34.7188 138.375C44.4271 145.094 52.8073 153.182 59.9167 162.604C65.8281 170.432 70.6927 178.885 74.8125 187.781C74.8646 187.901 74.9011 188.036 74.974 188.146C75.0417 188.26 75.1354 188.354 75.2188 188.458C68.2761 171.104 57.9948 156.031 44.6042 143.104C33.5833 132.464 21.0417 124.12 6.72396 118.573ZM45.4219 153.615C45.4948 153.552 45.5625 153.49 45.6302 153.432C45.4948 153.224 45.3802 153 45.224 152.813C42.4896 149.63 39.8021 146.406 36.9844 143.302C35.6406 141.823 34.1823 140.37 32.526 139.281C26.0729 135.021 19.1354 131.693 11.8594 129.073C10.599 128.62 9.32292 128.224 8.05208 127.797C22.6563 133.302 35.1771 141.776 45.4219 153.615ZM69.5208 269.479C74.2761 252.458 74.5625 235.193 71.8906 217.797C73.5938 235.125 72.8333 252.344 69.5208 269.479ZM86.3281 276.948C87.5104 267.359 88.0781 257.76 87.3021 248.12C87.0886 249.938 86.9427 251.755 86.7344 253.568C86.4115 256.401 85.8073 259.214 86.1042 262.094C86.1719 262.755 86.2813 263.422 86.2865 264.089C86.3177 266.682 86.3177 269.276 86.3281 271.875C86.3333 273.563 86.3281 275.255 86.3281 276.948Z" fill="white"/>
</g>
</g>
<defs>
<clipPath id="clip0_6_744">
<rect width="200" height="200" fill="white"/>
</clipPath>
</defs>
</svg>
