<svg width="200" height="249" viewBox="0 0 200 249" fill="none" xmlns="http://www.w3.org/2000/svg">
<g clip-path="url(#clip0_3_222)">
<mask id="mask0_3_222" style="mask-type:luminance" maskUnits="userSpaceOnUse" x="63" y="-81" width="297" height="309">
<path d="M63.6666 -80.6666H359.667V227.333H63.6666V-80.6666Z" fill="white"/>
</mask>
<g mask="url(#mask0_3_222)">
<mask id="mask1_3_222" style="mask-type:luminance" maskUnits="userSpaceOnUse" x="29" y="-106" width="429" height="424">
<path d="M29.5833 49.1771L309.385 -105.615L457.891 162.818L178.088 317.609L29.5833 49.1771Z" fill="white"/>
</mask>
<g mask="url(#mask1_3_222)">
<mask id="mask2_3_222" style="mask-type:luminance" maskUnits="userSpaceOnUse" x="29" y="-106" width="429" height="424">
<path d="M29.5833 49.1771L309.385 -105.615L457.891 162.818L178.088 317.609L29.5833 49.1771Z" fill="white"/>
</mask>
<g mask="url(#mask2_3_222)">
<mask id="mask3_3_222" style="mask-type:luminance" maskUnits="userSpaceOnUse" x="29" y="-106" width="429" height="424">
<path d="M29.5833 49.1771L309.385 -105.615L457.891 162.818L178.088 317.609L29.5833 49.1771Z" fill="white"/>
</mask>
<g mask="url(#mask3_3_222)">
<path d="M307.271 224.917C292.677 221.984 278.208 218.443 263.849 214.531C244.864 209.359 226.068 203.458 207.578 196.729C187.594 189.458 167.932 181.182 149.073 171.349C131.427 162.151 114.286 151.531 99.328 138.339C86.6093 127.12 75.1926 113.62 69.2291 97.5521C63.3384 81.6823 64.0207 64.6459 69.9009 48.8646C73.7655 38.5 79.2968 28.3177 87.7811 21.0365C97.0103 13.1146 109.01 9.4844 120.995 8.86981C134.088 8.20315 147.219 10.9375 159.516 15.2344C172.411 19.7396 184.641 26.2136 195.739 34.1406C200.198 37.3281 204.453 40.7969 208.463 44.5313C208.937 44.9792 209.745 44.5677 209.594 43.9063C204.87 23.2969 204.604 1.55731 211.031 -18.7396C216.229 -35.1666 225.88 -50.1875 239.213 -61.1979C250.979 -70.9062 265.687 -77.2448 280.995 -77.9948C296.411 -78.7448 311.422 -73.4219 323.187 -63.5364C338.766 -50.4583 347.781 -31.0781 352.682 -11.7031C359.411 14.8854 358.526 42.9844 354.708 69.9636C350.594 99 342.771 127.458 333.443 155.229C325.463 178.984 316.208 202.297 306.437 225.375C306.104 226.172 307.396 226.531 307.729 225.745C318.229 200.932 328.12 175.849 336.505 150.245C345.573 122.568 352.974 94.2032 356.682 65.2917C360.109 38.5469 360.328 10.7761 353.099 -15.3698C347.896 -34.1875 338.562 -52.7344 323.198 -65.2604C311.396 -74.8854 296.505 -79.9791 281.25 -79.3437C266.031 -78.7083 251.479 -72.5625 239.583 -63.2031C226.177 -52.6562 216.375 -38.0104 210.713 -22.0104C203.807 -2.48435 203.323 18.7709 207.182 38.9688C207.516 40.7292 207.891 42.4792 208.292 44.2188C208.667 44.0104 209.042 43.8021 209.422 43.5938C199.792 34.6198 188.75 27.1927 177.01 21.2552C165.073 15.2136 152.234 10.6979 138.989 8.60419C127.021 6.71356 114.469 6.89586 102.932 10.9167C91.6457 14.8438 82.0207 22.7292 75.9999 33.0521C67.0728 48.3594 61.8853 65.9115 64.328 83.6667C66.5624 99.9323 75.052 114.536 85.7499 126.714C98.2603 140.958 113.849 152.354 129.984 162.161C147.937 173.073 167.026 182.078 186.458 190.021C205.505 197.802 224.989 204.51 244.693 210.438C260.917 215.318 277.307 219.667 293.833 223.406C298.177 224.391 302.531 225.328 306.896 226.203C307.739 226.375 308.12 225.089 307.271 224.917Z" fill="white"/>
</g>
</g>
</g>
</g>
<mask id="mask4_3_222" style="mask-type:luminance" maskUnits="userSpaceOnUse" x="61" y="-72" width="298" height="313">
<path d="M61 -71.3333H358.333V240.667H61V-71.3333Z" fill="white"/>
</mask>
<g mask="url(#mask4_3_222)">
<mask id="mask5_3_222" style="mask-type:luminance" maskUnits="userSpaceOnUse" x="29" y="-106" width="429" height="424">
<path d="M29.5834 49.1771L309.385 -105.615L457.891 162.818L178.089 317.609L29.5834 49.1771Z" fill="white"/>
</mask>
<g mask="url(#mask5_3_222)">
<mask id="mask6_3_222" style="mask-type:luminance" maskUnits="userSpaceOnUse" x="29" y="-106" width="429" height="424">
<path d="M29.5834 49.1771L309.385 -105.615L457.891 162.818L178.089 317.609L29.5834 49.1771Z" fill="white"/>
</mask>
<g mask="url(#mask6_3_222)">
<mask id="mask7_3_222" style="mask-type:luminance" maskUnits="userSpaceOnUse" x="29" y="-106" width="429" height="424">
<path d="M29.5834 49.1771L309.385 -105.615L457.891 162.818L178.089 317.609L29.5834 49.1771Z" fill="white"/>
</mask>
<g mask="url(#mask7_3_222)">
<path d="M308.526 231.443C293.984 228.521 279.526 225.229 265.151 221.589C246.141 216.781 227.281 211.344 208.693 205.12C188.62 198.396 168.823 190.734 149.755 181.536C131.969 172.958 114.609 163.01 99.3178 150.453C86.4167 139.865 74.7136 127.031 68.2709 111.443C61.9428 96.1458 62.2084 79.4219 67.6615 63.8958C71.349 53.3958 76.9011 43.2031 84.7761 35.2656C93.6928 26.2917 105.37 20.724 117.724 18.3958C143.615 13.5156 171.422 22.1875 192.432 37.3125C195.792 39.7292 198.99 42.375 202.021 45.1979C202.495 45.6406 203.302 45.2344 203.151 44.5729C198.495 24.25 198.182 2.6823 205.266 -17.1458C210.901 -32.9323 221.323 -46.9271 235.26 -56.3385C248.068 -64.9896 263.526 -69.4635 278.974 -68.6406C295.255 -67.776 310.599 -60.7917 322.49 -49.7708C338.057 -35.3437 347.125 -15.1354 351.771 5.27605C357.885 32.1458 356.568 60.3386 352.417 87.4115C347.974 116.391 339.953 144.781 330.474 172.5C322.787 194.99 313.984 217.083 304.724 238.969C304.385 239.76 305.677 240.12 306.01 239.333C316.51 214.526 326.401 189.438 334.792 163.833C343.854 136.161 351.26 107.792 354.964 78.8854C358.391 52.1406 358.609 24.3646 351.38 -1.78123C346.016 -21.1771 336.25 -39.9531 320.724 -53.125C308.542 -63.4635 293.182 -69.5781 277.172 -70.0573C261.787 -70.5104 246.479 -65.6927 233.833 -56.9792C220.078 -47.5 209.896 -33.6302 204.162 -18.026C197.021 1.39584 197.094 22.7292 201.37 42.7604C201.526 43.4688 201.682 44.1771 201.844 44.8854C202.224 44.6771 202.599 44.4688 202.979 44.2604C184.026 26.6094 157.891 15.7292 131.865 15.7656C119.568 15.7865 107.208 18.5469 96.4688 24.6615C85.6147 30.8386 77.4792 40.2656 71.7501 51.2448C63.8438 66.3802 59.9272 83.5417 63.4636 100.448C66.7865 116.307 76.2032 130.12 87.4428 141.49C100.76 154.953 116.849 165.547 133.385 174.625C151.745 184.708 171.094 192.964 190.729 200.219C209.854 207.281 229.339 213.349 249 218.724C265 223.104 281.13 227.01 297.354 230.484C300.948 231.255 304.547 232.005 308.151 232.729C308.995 232.896 309.375 231.609 308.526 231.443Z" fill="white"/>
</g>
</g>
</g>
</g>
<mask id="mask8_3_222" style="mask-type:luminance" maskUnits="userSpaceOnUse" x="66" y="-68" width="303" height="312">
<path d="M66.3334 -67.3333H369V243.333H66.3334V-67.3333Z" fill="white"/>
</mask>
<g mask="url(#mask8_3_222)">
<mask id="mask9_3_222" style="mask-type:luminance" maskUnits="userSpaceOnUse" x="29" y="-106" width="429" height="424">
<path d="M29.5834 49.1771L309.385 -105.615L457.891 162.818L178.089 317.609L29.5834 49.1771Z" fill="white"/>
</mask>
<g mask="url(#mask9_3_222)">
<mask id="mask10_3_222" style="mask-type:luminance" maskUnits="userSpaceOnUse" x="29" y="-106" width="429" height="424">
<path d="M29.5834 49.1771L309.385 -105.615L457.891 162.818L178.089 317.609L29.5834 49.1771Z" fill="white"/>
</mask>
<g mask="url(#mask10_3_222)">
<mask id="mask11_3_222" style="mask-type:luminance" maskUnits="userSpaceOnUse" x="29" y="-106" width="429" height="424">
<path d="M29.5834 49.1771L309.385 -105.615L457.891 162.818L178.089 317.609L29.5834 49.1771Z" fill="white"/>
</mask>
<g mask="url(#mask11_3_222)">
<path d="M313.729 240.854C299.109 237.911 284.568 234.583 270.12 230.896C251.13 226.052 232.292 220.573 213.729 214.286C193.714 207.51 173.979 199.786 154.974 190.531C137.208 181.875 119.885 171.839 104.615 159.229C91.6563 148.521 79.9271 135.589 73.3386 119.943C66.8855 104.609 66.8178 87.7813 71.9844 72.0469C75.3698 61.7344 80.5573 51.5209 87.7865 43.3698C96.1511 33.9375 107.365 27.6042 119.542 24.5521C144.896 18.2032 172.714 25.5052 194.401 39.1459C199.891 42.599 205.052 46.5625 209.797 50.9844C210.276 51.4271 211.078 51.0209 210.927 50.3542C206.281 30.0938 205.87 8.61983 212.609 -11.2552C217.984 -27.1041 228.021 -41.3177 241.625 -51.1666C254.083 -60.1875 269.24 -65.2812 284.635 -65.2708C300.609 -65.2552 316.109 -59.5 328.521 -49.5364C344.203 -36.9375 354.188 -18.6562 359.969 0.338585C367.76 25.9323 367.865 53.2865 364.495 79.6407C360.885 107.859 353.182 135.479 343.99 162.359C335.297 187.755 325.052 212.578 314.599 237.292C314.037 238.63 313.469 239.969 312.901 241.313C312.563 242.104 313.854 242.464 314.188 241.682C324.557 217.193 334.792 192.641 343.604 167.542C352.979 140.844 360.844 113.474 365.031 85.4584C368.964 59.1563 369.516 31.8855 362.932 5.9688C357.906 -13.8177 348.537 -33.1093 333.38 -47.1093C321.615 -57.9791 306.589 -64.9218 290.583 -66.3437C275.385 -67.6927 259.964 -63.9062 246.844 -56.1823C232.781 -47.8958 221.703 -35.1614 214.844 -20.4166C206.547 -2.57288 204.698 17.5209 207.146 36.8698C207.729 41.5105 208.578 46.1146 209.625 50.6719C210 50.4636 210.38 50.2552 210.755 50.0469C191.891 32.4688 166.094 21.5365 140.214 20.9948C127.969 20.7396 115.604 23.0938 104.646 28.6719C93.4584 34.3698 84.474 43.4896 78.3803 54.4011C69.823 69.7136 64.9271 87.1823 67.6198 104.729C70.0834 120.74 78.698 134.995 89.4896 146.797C102.115 160.615 117.755 171.537 133.891 180.875C151.922 191.313 171.042 199.833 190.474 207.318C209.641 214.698 229.214 221.01 248.974 226.599C265.432 231.26 282.042 235.396 298.75 239.068C303.609 240.135 308.479 241.156 313.359 242.141C314.203 242.307 314.578 241.021 313.729 240.854Z" fill="white"/>
</g>
</g>
</g>
</g>
<mask id="mask12_3_222" style="mask-type:luminance" maskUnits="userSpaceOnUse" x="-81" y="-590" width="681" height="664">
<path d="M-80.3334 -590H599.667V74H-80.3334V-590Z" fill="white"/>
</mask>
<g mask="url(#mask12_3_222)">
<mask id="mask13_3_222" style="mask-type:luminance" maskUnits="userSpaceOnUse" x="-251" y="-658" width="902" height="916">
<path d="M375.812 -657.802L650.026 -5.62494L23.6406 257.74L-250.568 -394.432L375.812 -657.802Z" fill="white"/>
</mask>
<g mask="url(#mask13_3_222)">
<mask id="mask14_3_222" style="mask-type:luminance" maskUnits="userSpaceOnUse" x="-251" y="-658" width="902" height="916">
<path d="M375.812 -657.802L650.026 -5.62494L23.6406 257.74L-250.568 -394.432L375.812 -657.802Z" fill="white"/>
</mask>
<g mask="url(#mask14_3_222)">
<mask id="mask15_3_222" style="mask-type:luminance" maskUnits="userSpaceOnUse" x="-251" y="-658" width="902" height="916">
<path d="M375.812 -657.802L650.026 -5.62494L23.6406 257.74L-250.568 -394.432L375.812 -657.802Z" fill="white"/>
</mask>
<g mask="url(#mask15_3_222)">
<path d="M-77.2292 -88.3177C-67.2969 -119.734 -56.0521 -150.734 -44.0261 -181.401C-28.1146 -221.958 -10.6563 -261.922 8.56249 -301.021C29.3333 -343.271 52.2344 -384.568 78.3698 -423.75C102.828 -460.406 130.286 -495.615 162.891 -525.406C190.62 -550.74 223.068 -572.677 259.865 -582.01C296.203 -591.224 333.557 -585.687 366.906 -569.026C388.802 -558.083 409.901 -543.505 423.922 -523.109C439.161 -500.937 444.307 -473.677 442.797 -447.167C441.146 -418.203 432 -389.953 419.615 -363.901C406.635 -336.599 389.469 -311.214 369.37 -288.667C361.292 -279.609 352.641 -271.068 343.464 -263.13C342.365 -262.182 343.073 -260.312 344.568 -260.495C391.073 -266.021 438.995 -261.469 482.161 -242.536C517.099 -227.219 547.87 -202.443 568.932 -170.495C587.51 -142.323 597.974 -108.458 595.974 -74.5989C593.958 -40.5104 578.667 -8.73431 554.104 14.8282C521.594 46.0052 476.771 61.2657 432.953 67.474C372.807 76.0001 311.146 67.4219 252.656 52.6459C189.703 36.7449 128.901 12.8074 69.9844 -14.2708C19.5729 -37.4426 -29.5521 -63.3124 -78.0417 -90.2499C-79.7136 -91.1823 -80.8125 -88.4218 -79.1615 -87.5052C-27.0313 -58.5416 25.8437 -30.8593 80.2292 -6.35413C139 20.1302 199.693 43.1146 262.469 58.0938C320.536 71.9532 381.635 78.9949 440.927 69.2605C483.594 62.2501 526.651 46.099 557.891 15.2552C581.896 -8.44263 596.656 -40.0104 598.88 -73.7239C601.104 -107.354 591.042 -140.833 573.266 -169.214C553.229 -201.203 523.318 -226.229 489.432 -242.464C448.083 -262.271 401.401 -268.349 356.01 -264.635C352.062 -264.312 348.12 -263.901 344.188 -263.437C344.557 -262.557 344.927 -261.677 345.297 -260.797C367.349 -279.865 386.328 -302.411 402.198 -326.839C418.339 -351.682 431.333 -378.859 439.099 -407.505C446.12 -433.391 448.698 -461.052 442.594 -487.396C436.63 -513.146 421.563 -536.187 400.26 -551.875C368.693 -575.13 331.276 -590.687 291.604 -589.51C255.25 -588.432 221.083 -573.198 191.719 -552.536C157.385 -528.375 128.573 -496.76 103.146 -463.578C74.8437 -426.656 50.474 -386.786 28.3646 -345.896C6.6927 -305.823 -12.7083 -264.536 -30.4479 -222.583C-45.0573 -188.042 -58.5365 -153 -70.7083 -117.521C-73.9063 -108.198 -77.0052 -98.8385 -79.9792 -89.4374C-80.5469 -87.6249 -77.8073 -86.4895 -77.2292 -88.3177Z" fill="white"/>
</g>
</g>
</g>
</g>
<mask id="mask16_3_222" style="mask-type:luminance" maskUnits="userSpaceOnUse" x="-110" y="-597" width="691" height="665">
<path d="M-109.667 -596.667H581V67.3333H-109.667V-596.667Z" fill="white"/>
</mask>
<g mask="url(#mask16_3_222)">
<mask id="mask17_3_222" style="mask-type:luminance" maskUnits="userSpaceOnUse" x="-251" y="-658" width="902" height="916">
<path d="M375.813 -657.802L650.026 -5.625L23.6407 257.74L-250.568 -394.432L375.813 -657.802Z" fill="white"/>
</mask>
<g mask="url(#mask17_3_222)">
<mask id="mask18_3_222" style="mask-type:luminance" maskUnits="userSpaceOnUse" x="-251" y="-658" width="902" height="916">
<path d="M375.813 -657.802L650.026 -5.625L23.6407 257.74L-250.568 -394.432L375.813 -657.802Z" fill="white"/>
</mask>
<g mask="url(#mask18_3_222)">
<mask id="mask19_3_222" style="mask-type:luminance" maskUnits="userSpaceOnUse" x="-251" y="-658" width="902" height="916">
<path d="M375.813 -657.802L650.026 -5.625L23.6407 257.74L-250.568 -394.432L375.813 -657.802Z" fill="white"/>
</mask>
<g mask="url(#mask19_3_222)">
<path d="M-91.8905 -87.099C-81.9999 -118.396 -71.3072 -149.443 -59.8801 -180.208C-44.7603 -220.901 -28.3072 -261.109 -10.1717 -300.547C9.41159 -343.12 30.9949 -384.87 55.7814 -424.656C78.896 -461.76 104.943 -497.615 136.224 -528.292C162.609 -554.177 193.651 -576.896 229.5 -587.401C264.688 -597.708 301.458 -593.172 334.344 -577.5C356.578 -566.906 377.703 -552.292 393.302 -533.083C410.943 -511.354 420.417 -484.344 422.604 -456.609C427.188 -398.49 401.479 -339.359 363.172 -296.698C357.047 -289.875 350.464 -283.464 343.531 -277.464C342.432 -276.516 343.141 -274.651 344.641 -274.828C390.49 -280.276 438.052 -275.859 480.026 -255.599C513.438 -239.474 541.771 -213.234 559.177 -180.349C575.182 -150.12 581.344 -115.057 575.859 -81.2604C570.083 -45.6354 551.047 -13.5312 523.953 10.0416C488.49 40.8854 441.833 56.0625 395.787 61.4635C335.167 68.5781 273.406 59.0156 214.787 43.4896C152.031 26.8698 91.4324 2.52081 32.6616 -24.8802C-15.0259 -47.1094 -61.5728 -71.6927 -107.557 -97.2396C-109.229 -98.1719 -110.328 -95.4115 -108.677 -94.4948C-56.5467 -65.5312 -3.66653 -37.849 50.7137 -13.3438C109.485 13.1406 170.182 36.125 232.953 51.1041C291.026 64.9635 352.12 72.0052 411.417 62.2708C455.401 55.0469 499.068 37.9896 531.766 6.9375C557.417 -17.4219 574.547 -49.7656 579.406 -84.8854C584.073 -118.635 577.109 -153.453 560.927 -183.339C543.328 -215.833 515.219 -241.521 482.219 -257.823C441.156 -278.115 394.167 -282.99 349.052 -278.312C347.453 -278.146 345.854 -277.958 344.255 -277.771C344.625 -276.891 344.995 -276.01 345.365 -275.135C388.745 -312.661 418.922 -367.604 425.026 -424.87C427.912 -451.938 424.771 -479.781 413.875 -504.854C402.859 -530.203 384.037 -550.323 361.229 -565.526C329.776 -586.495 292.922 -599.167 254.854 -595.37C219.146 -591.807 186.495 -574.354 158.792 -552.302C125.974 -526.182 98.8178 -493.286 74.8855 -459.042C48.323 -421.021 25.5366 -380.401 4.89076 -338.906C-15.2134 -298.505 -33.203 -257.057 -49.729 -215.063C-63.1717 -180.896 -75.6145 -146.328 -87.1301 -111.458C-89.6822 -103.729 -92.1822 -95.9844 -94.6353 -88.224C-95.2082 -86.4063 -92.4686 -85.2708 -91.8905 -87.099Z" fill="white"/>
</g>
</g>
</g>
</g>
<mask id="mask20_3_222" style="mask-type:luminance" maskUnits="userSpaceOnUse" x="-118" y="-589" width="690" height="679">
<path d="M-117.667 -588.667H571.667V90H-117.667V-588.667Z" fill="white"/>
</mask>
<g mask="url(#mask20_3_222)">
<mask id="mask21_3_222" style="mask-type:luminance" maskUnits="userSpaceOnUse" x="-251" y="-658" width="902" height="916">
<path d="M375.813 -657.802L650.026 -5.625L23.6407 257.74L-250.568 -394.432L375.813 -657.802Z" fill="white"/>
</mask>
<g mask="url(#mask21_3_222)">
<mask id="mask22_3_222" style="mask-type:luminance" maskUnits="userSpaceOnUse" x="-251" y="-658" width="902" height="916">
<path d="M375.813 -657.802L650.026 -5.625L23.6407 257.74L-250.568 -394.432L375.813 -657.802Z" fill="white"/>
</mask>
<g mask="url(#mask22_3_222)">
<mask id="mask23_3_222" style="mask-type:luminance" maskUnits="userSpaceOnUse" x="-251" y="-658" width="902" height="916">
<path d="M375.813 -657.802L650.026 -5.625L23.6407 257.74L-250.568 -394.432L375.813 -657.802Z" fill="white"/>
</mask>
<g mask="url(#mask23_3_222)">
<path d="M-113.854 -77.8646C-103.901 -109.344 -93.104 -140.552 -81.5519 -171.474C-66.3644 -212.115 -49.8176 -252.26 -31.5624 -291.62C-11.8801 -334.068 9.82305 -375.667 34.7293 -415.297C58.0158 -452.344 84.2397 -488.094 115.641 -518.703C142.302 -544.698 173.563 -567.448 209.583 -578.245C244.886 -588.833 281.953 -585.005 315.365 -569.922C337.266 -560.036 358.516 -546.208 374.74 -528.38C393.521 -507.745 404.797 -481.583 408.615 -454.068C416.563 -396.776 393.859 -337.292 358.672 -292.792C349.761 -281.526 339.802 -271.109 328.943 -261.719C327.844 -260.771 328.552 -258.901 330.047 -259.078C375.771 -264.516 423.151 -260.354 465.302 -240.833C498.917 -225.266 527.828 -199.818 546.281 -167.563C563.177 -138.026 570.781 -103.469 567.089 -69.6042C563.255 -34.4531 546.896 -1.70312 522 23.25C490.537 54.776 447.901 72.4375 404.698 80.6719C346.495 91.7708 286.25 85.5364 229.021 71.8958C167.745 57.2969 108.771 33.8229 51.7762 7.24475C-2.07278 -17.8698 -54.2915 -46.2761 -106.219 -75.1094C-109.036 -76.6719 -111.849 -78.2344 -114.667 -79.7969C-116.338 -80.7292 -117.437 -77.9688 -115.786 -77.0521C-64.3332 -48.4636 -12.7134 -20.1354 40.4481 5.18225C97.0001 32.1094 155.391 55.875 216.078 71.7031C273.057 86.5677 332.969 94.2239 391.599 85.8594C436.359 79.4688 481.068 63.4114 515.5 33.375C542.234 10.0469 561.099 -21.3698 568.037 -56.2552C574.625 -89.375 569.964 -124.203 556.073 -154.891C541.182 -187.792 515.776 -215.182 484.938 -233.75C447.625 -256.219 403.833 -265.031 360.646 -264.219C350.287 -264.026 339.948 -263.245 329.667 -262.021C330.037 -261.146 330.406 -260.266 330.776 -259.385C373.964 -296.75 404.177 -350.917 411.526 -407.734C415.005 -434.62 412.766 -462.38 403.089 -487.818C393.208 -513.776 375.261 -535.693 352.693 -551.677C321.021 -574.12 283.714 -589.021 244.443 -587.234C208.604 -585.604 175.172 -570.01 146.615 -549.057C113.188 -524.531 85.4168 -492.703 61.0158 -459.406C33.7397 -422.193 10.422 -382.135 -10.6822 -341.146C-31.4894 -300.719 -50.0467 -259.141 -67.0624 -216.979C-81.2342 -181.865 -94.2967 -146.297 -106.354 -110.401C-109.864 -99.9584 -113.276 -89.4896 -116.599 -78.9844C-117.172 -77.1719 -114.427 -76.0365 -113.854 -77.8646Z" fill="white"/>
</g>
</g>
</g>
</g>
</g>
<defs>
<clipPath id="clip0_3_222">
<rect width="200" height="250" fill="white" transform="translate(0 -1)"/>
</clipPath>
</defs>
</svg>
