<svg width="500" height="200" viewBox="0 0 500 200" fill="none" xmlns="http://www.w3.org/2000/svg">
<g clip-path="url(#clip0_3_117)">
<mask id="mask0_3_117" style="mask-type:luminance" maskUnits="userSpaceOnUse" x="-324" y="-232" width="455" height="460">
<path d="M-324 -232H130.667V228H-324V-232Z" fill="white"/>
</mask>
<g mask="url(#mask0_3_117)">
<mask id="mask1_3_117" style="mask-type:luminance" maskUnits="userSpaceOnUse" x="-484" y="-278" width="654" height="647">
<path d="M-260.089 -277.255L169.682 -44.4114L-54.1146 368.661L-483.885 135.818L-260.089 -277.255Z" fill="white"/>
</mask>
<g mask="url(#mask1_3_117)">
<mask id="mask2_3_117" style="mask-type:luminance" maskUnits="userSpaceOnUse" x="-484" y="-278" width="654" height="647">
<path d="M-260.089 -277.255L169.682 -44.4114L-54.1146 368.661L-483.885 135.818L-260.089 -277.255Z" fill="white"/>
</mask>
<g mask="url(#mask2_3_117)">
<mask id="mask3_3_117" style="mask-type:luminance" maskUnits="userSpaceOnUse" x="-484" y="-278" width="654" height="647">
<path d="M-260.089 -277.255L169.682 -44.4114L-54.1146 368.661L-483.885 135.818L-260.089 -277.255Z" fill="white"/>
</mask>
<g mask="url(#mask3_3_117)">
<path d="M-258.104 225.792C-266.328 204.562 -273.672 182.984 -280.443 161.245C-289.401 132.5 -297.271 103.401 -303.813 74.0104C-310.88 42.2448 -316.391 10.0729 -319.24 -22.3594C-321.906 -52.7031 -322.323 -83.5625 -317.625 -113.734C-313.635 -139.391 -305.625 -165.26 -289.823 -186.219C-274.219 -206.911 -251.688 -220.099 -226.51 -225.547C-209.974 -229.13 -192.297 -230.406 -175.922 -225.479C-158.12 -220.125 -143.562 -207.656 -132.917 -192.714C-121.281 -176.385 -114 -157.203 -109.417 -137.802C-104.609 -117.464 -102.885 -96.3542 -103.974 -75.5C-104.411 -67.1198 -105.38 -58.7708 -106.901 -50.5208C-107.083 -49.5365 -105.891 -48.8333 -105.161 -49.5781C-82.4844 -72.6875 -54.6823 -90.974 -23.2292 -99.4531C2.22397 -106.318 29.526 -106.281 54.6927 -98.1823C76.8854 -91.0365 97.1667 -77.3125 110.724 -58.1979C124.38 -38.9479 129.87 -15.2031 126.818 8.13022C122.771 39.0052 105.208 66.6302 84.2708 88.9427C55.5364 119.573 18.5885 141.635 -19.3333 158.99C-60.1406 177.667 -103.266 191.083 -146.734 201.984C-183.927 211.312 -221.594 218.635 -259.375 225.099C-260.677 225.323 -260.078 227.286 -258.792 227.068C-218.172 220.115 -177.698 212.151 -137.786 201.818C-94.6562 190.656 -52 176.776 -11.6875 157.677C25.6094 140.01 61.5885 117.365 89.3385 86.4531C109.312 64.2083 125.542 36.8646 129.047 6.71875C131.74 -16.4427 126.047 -39.8438 112.672 -58.9844C99.3333 -78.0677 79.4323 -91.7604 57.5833 -99.3646C32.9479 -107.937 6.00522 -108.479 -19.276 -102.562C-50.1302 -95.3438 -77.9219 -78.4115 -100.786 -56.7656C-102.776 -54.8802 -104.724 -52.9531 -106.641 -51C-106.062 -50.6875 -105.484 -50.3698 -104.901 -50.0573C-101.255 -69.8802 -100.776 -90.25 -102.781 -110.281C-104.818 -130.661 -109.562 -150.938 -117.76 -169.734C-125.172 -186.724 -135.74 -202.75 -150.417 -214.312C-164.766 -225.609 -182.849 -231.505 -201.115 -230.745C-228.188 -229.615 -255.078 -221.807 -275.958 -204C-295.089 -187.682 -306.922 -164.682 -313.818 -140.833C-321.88 -112.948 -323.745 -83.4427 -323.104 -54.5521C-322.396 -22.401 -318.297 9.64062 -312.536 41.25C-306.896 72.2292 -299.505 102.88 -290.932 133.172C-283.87 158.115 -275.99 182.839 -267.214 207.229C-264.906 213.641 -262.531 220.026 -260.068 226.375C-259.594 227.599 -257.625 227.026 -258.104 225.792Z" fill="white"/>
</g>
</g>
</g>
</g>
<mask id="mask4_3_117" style="mask-type:luminance" maskUnits="userSpaceOnUse" x="-339" y="-223" width="453" height="461">
<path d="M-338.667 -222.667H113.333V237.333H-338.667V-222.667Z" fill="white"/>
</mask>
<g mask="url(#mask4_3_117)">
<mask id="mask5_3_117" style="mask-type:luminance" maskUnits="userSpaceOnUse" x="-484" y="-278" width="654" height="647">
<path d="M-260.089 -277.255L169.682 -44.4115L-54.1146 368.661L-483.885 135.818L-260.089 -277.255Z" fill="white"/>
</mask>
<g mask="url(#mask5_3_117)">
<mask id="mask6_3_117" style="mask-type:luminance" maskUnits="userSpaceOnUse" x="-484" y="-278" width="654" height="647">
<path d="M-260.089 -277.255L169.682 -44.4115L-54.1146 368.661L-483.885 135.818L-260.089 -277.255Z" fill="white"/>
</mask>
<g mask="url(#mask6_3_117)">
<mask id="mask7_3_117" style="mask-type:luminance" maskUnits="userSpaceOnUse" x="-484" y="-278" width="654" height="647">
<path d="M-260.089 -277.255L169.682 -44.4115L-54.1146 368.661L-483.885 135.818L-260.089 -277.255Z" fill="white"/>
</mask>
<g mask="url(#mask7_3_117)">
<path d="M-265.479 232.797C-273.677 211.641 -281.333 190.281 -288.474 168.75C-297.917 140.276 -306.432 111.479 -313.703 82.3698C-321.557 50.9479 -327.969 19.1041 -331.807 -13.0678C-335.391 -43.0782 -336.849 -73.6719 -333.25 -103.75C-330.219 -129.12 -323.307 -154.802 -308.521 -175.979C-294.01 -196.766 -272.229 -210.234 -247.724 -216.026C-231.161 -219.938 -213.453 -221.203 -196.74 -217.599C-177.839 -213.521 -161.052 -203.068 -147.885 -189.063C-120.286 -159.719 -108.583 -116.719 -110.786 -77.1459C-111.141 -70.8178 -111.917 -64.5105 -113.062 -58.2761C-113.24 -57.2917 -112.052 -56.5938 -111.323 -57.3334C-88.9635 -80.1198 -61.4167 -98.323 -30.026 -105.573C-5.04688 -111.339 21.5729 -109.458 45.1719 -99.2709C66.8698 -89.9011 85.349 -73.6719 97.0052 -53.0782C109.292 -31.3803 112.911 -5.83339 108.495 18.5989C102.714 50.5729 84.125 78.9479 61.6406 101.792C32.0365 131.859 -5.39062 153.443 -43.7031 170.443C-84.7188 188.646 -127.911 201.75 -171.438 212.422C-206.755 221.078 -242.474 227.974 -278.307 234.109C-279.609 234.333 -279.01 236.292 -277.724 236.073C-237.099 229.12 -196.63 221.156 -156.719 210.828C-113.589 199.661 -70.9323 185.781 -30.6146 166.687C6.67709 149.021 42.6562 126.37 70.4115 95.4583C91 72.526 107.161 44.4374 111.365 13.5468C114.661 -10.6876 109.911 -35.5365 97.349 -56.5678C85.2708 -76.7813 66.4635 -92.5313 44.8229 -101.635C21.2865 -111.537 -4.96875 -113.214 -29.8073 -107.719C-60.7135 -100.88 -88.151 -83.1719 -110.448 -61.1251C-111.24 -60.3438 -112.021 -59.5521 -112.802 -58.7553C-112.224 -58.4428 -111.641 -58.1303 -111.062 -57.8178C-103.906 -96.8178 -111.391 -139.495 -132.859 -173.005C-143 -188.844 -156.734 -202.495 -173.448 -211.292C-190.344 -220.182 -209.188 -222.88 -228.057 -221.208C-254.073 -218.896 -279.422 -209.776 -298.297 -191.25C-316.01 -173.875 -326.068 -150.333 -331.469 -126.458C-337.865 -98.1771 -338.281 -68.6876 -336.375 -39.8698C-334.26 -7.88026 -328.979 23.8749 -322.172 55.177C-315.542 85.6562 -307.318 115.786 -298.073 145.568C-290.547 169.807 -282.307 193.823 -273.443 217.604C-271.474 222.875 -269.474 228.13 -267.443 233.375C-266.969 234.604 -265 234.031 -265.479 232.797Z" fill="white"/>
</g>
</g>
</g>
</g>
<mask id="mask8_3_117" style="mask-type:luminance" maskUnits="userSpaceOnUse" x="-346" y="-211" width="462" height="461">
<path d="M-345.333 -210.667H116V249.333H-345.333V-210.667Z" fill="white"/>
</mask>
<g mask="url(#mask8_3_117)">
<mask id="mask9_3_117" style="mask-type:luminance" maskUnits="userSpaceOnUse" x="-484" y="-278" width="654" height="647">
<path d="M-260.089 -277.255L169.682 -44.4115L-54.1146 368.661L-483.885 135.818L-260.089 -277.255Z" fill="white"/>
</mask>
<g mask="url(#mask9_3_117)">
<mask id="mask10_3_117" style="mask-type:luminance" maskUnits="userSpaceOnUse" x="-484" y="-278" width="654" height="647">
<path d="M-260.089 -277.255L169.682 -44.4115L-54.1146 368.661L-483.885 135.818L-260.089 -277.255Z" fill="white"/>
</mask>
<g mask="url(#mask10_3_117)">
<mask id="mask11_3_117" style="mask-type:luminance" maskUnits="userSpaceOnUse" x="-484" y="-278" width="654" height="647">
<path d="M-260.089 -277.255L169.682 -44.4115L-54.1146 368.661L-483.885 135.818L-260.089 -277.255Z" fill="white"/>
</mask>
<g mask="url(#mask11_3_117)">
<path d="M-273.323 247.276C-281.568 226.005 -289.24 204.51 -296.38 182.839C-305.766 154.359 -314.203 125.557 -321.38 96.4427C-329.12 65.0417 -335.401 33.2292 -339.109 1.08853C-342.573 -28.9636 -343.891 -59.5781 -340.203 -89.6719C-337.068 -115.219 -330.052 -141.016 -315.302 -162.427C-300.849 -183.411 -279.214 -197.391 -254.682 -203.724C-238.604 -207.875 -221.167 -209.62 -204.714 -207.031C-185.667 -204.036 -168.281 -194.818 -154.328 -181.641C-125.271 -154.198 -111.792 -112.307 -111.526 -73.0938C-111.458 -63.1667 -112.323 -53.2396 -114.115 -43.474C-114.297 -42.4896 -113.109 -41.7865 -112.38 -42.5313C-90.0781 -65.25 -62.7448 -83.5156 -31.5833 -91.2396C-6.72919 -97.3959 19.8542 -96.1927 43.75 -86.7917C65.625 -78.1875 84.6667 -62.8542 97.3177 -43C110.443 -22.3958 115.786 2.33853 113.151 26.5625C109.823 57.1771 94.4739 85.151 74.7448 108.286C48.1667 139.458 12.9948 162.177 -23.75 179.594C-63.0938 198.245 -105.031 211.12 -147.245 221.464C-187.13 231.234 -227.563 238.521 -268.021 245.458C-270.214 245.833 -272.406 246.208 -274.599 246.589C-275.901 246.807 -275.302 248.771 -274.016 248.552C-233.922 241.693 -193.844 234.62 -154.245 225.255C-112.12 215.292 -70.3646 202.828 -30.8073 185.094C6.33331 168.443 41.9375 146.635 69.9271 116.75C91.2917 93.9375 108.453 65.9271 114.026 34.8333C118.349 10.6927 114.938 -14.4115 103.599 -36.2136C92.8281 -56.9219 75.2604 -73.6719 54.5052 -84.2031C32.2552 -95.4948 6.71875 -99.2604 -17.9323 -95.9219C-47.7604 -91.8854 -75.1771 -77.6771 -98.1094 -58.5469C-103.609 -53.9583 -108.844 -49.0625 -113.859 -43.9531C-113.276 -43.6406 -112.698 -43.3281 -112.12 -43.0104C-104.99 -81.8438 -112.125 -124.12 -132.724 -157.927C-142.474 -173.922 -155.682 -187.917 -171.896 -197.438C-188.443 -207.151 -207.594 -211.198 -226.672 -210.047C-253.448 -208.438 -280 -200.323 -300.396 -182.359C-319.01 -165.969 -330.292 -143.094 -336.625 -119.438C-344.042 -91.75 -345.255 -62.5729 -344.01 -34.0677C-342.625 -2.20314 -337.875 29.4844 -331.531 60.7083C-325.271 91.5104 -317.302 121.948 -308.245 152.042C-300.703 177.099 -292.37 201.927 -283.349 226.495C-280.724 233.641 -278.042 240.766 -275.292 247.859C-274.813 249.083 -272.844 248.51 -273.323 247.276Z" fill="white"/>
</g>
</g>
</g>
</g>
<mask id="mask12_3_117" style="mask-type:luminance" maskUnits="userSpaceOnUse" x="-62" y="-382" width="472" height="461">
<path d="M-61.3333 -381.333H409.333V78.6666H-61.3333V-381.333Z" fill="white"/>
</mask>
<g mask="url(#mask12_3_117)">
<mask id="mask13_3_117" style="mask-type:luminance" maskUnits="userSpaceOnUse" x="-179" y="-428" width="623" height="633">
<path d="M254.417 -427.995L443.87 22.5885L10.7865 204.682L-178.667 -245.906L254.417 -427.995Z" fill="white"/>
</mask>
<g mask="url(#mask13_3_117)">
<mask id="mask14_3_117" style="mask-type:luminance" maskUnits="userSpaceOnUse" x="-179" y="-428" width="623" height="633">
<path d="M254.417 -427.995L443.87 22.5885L10.7865 204.682L-178.667 -245.906L254.417 -427.995Z" fill="white"/>
</mask>
<g mask="url(#mask14_3_117)">
<mask id="mask15_3_117" style="mask-type:luminance" maskUnits="userSpaceOnUse" x="-179" y="-428" width="623" height="633">
<path d="M254.417 -427.995L443.87 22.5885L10.7865 204.682L-178.667 -245.906L254.417 -427.995Z" fill="white"/>
</mask>
<g mask="url(#mask15_3_117)">
<path d="M-58.8854 -34.4166C-52.0156 -56.125 -44.2344 -77.5521 -35.9114 -98.7448C-24.9062 -126.771 -12.8333 -154.385 0.463562 -181.401C14.8334 -210.604 30.6667 -239.141 48.7448 -266.219C65.6563 -291.552 84.6459 -315.885 107.193 -336.474C126.37 -353.984 148.807 -369.151 174.245 -375.604C199.37 -381.979 225.193 -378.161 248.245 -366.651C263.38 -359.094 277.964 -349.026 287.651 -334.938C298.182 -319.62 301.734 -300.786 300.688 -282.464C299.542 -262.453 293.214 -242.932 284.646 -224.927C275.667 -206.062 263.797 -188.516 249.896 -172.932C244.307 -166.672 238.328 -160.771 231.979 -155.286C231.224 -154.63 231.708 -153.339 232.745 -153.464C264.896 -157.292 298.026 -154.151 327.865 -141.078C352.01 -130.5 373.281 -113.385 387.839 -91.3177C400.677 -71.8542 407.901 -48.4583 406.51 -25.0625C405.115 -1.50519 394.536 20.4532 377.552 36.7396C355.073 58.2865 324.083 68.8386 293.786 73.1407C252.208 79.0417 209.578 73.125 169.146 62.9271C125.63 51.9479 83.599 35.4219 42.875 16.7188C8.02606 0.713562 -25.9323 -17.151 -59.4479 -35.7552C-60.6041 -36.3958 -61.3646 -34.4896 -60.2239 -33.8541C-24.1875 -13.8541 12.3646 5.26566 49.9531 22.1875C90.5782 40.474 132.536 56.349 175.932 66.6875C216.073 76.25 258.307 81.1042 299.302 74.3698C328.797 69.5209 358.568 58.3542 380.172 37.0313C396.766 20.6563 406.979 -1.16144 408.521 -24.4583C410.063 -47.6927 403.115 -70.8229 390.833 -90.4323C376.984 -112.531 356.313 -129.818 332.891 -141.031C304.307 -154.708 272.036 -158.901 240.656 -156.328C237.927 -156.104 235.203 -155.818 232.479 -155.495C232.734 -154.885 232.99 -154.281 233.245 -153.672C248.5 -166.849 261.62 -182.432 272.599 -199.312C283.76 -216.484 292.75 -235.266 298.125 -255.062C302.979 -272.948 304.766 -292.062 300.552 -310.26C296.432 -328.052 286.021 -343.974 271.297 -354.807C249.479 -370.875 223.615 -381.615 196.188 -380.792C171.057 -380.042 147.432 -369.51 127.13 -355.224C103.385 -338.526 83.4688 -316.677 65.8802 -293.745C46.3073 -268.224 29.4531 -240.672 14.1615 -212.417C-0.828106 -184.724 -14.25 -156.193 -26.5208 -127.198C-36.625 -103.328 -45.9479 -79.1146 -54.3698 -54.5989C-56.5833 -48.1562 -58.7291 -41.6875 -60.7864 -35.1927C-61.1771 -33.9427 -59.2864 -33.1562 -58.8854 -34.4166Z" fill="white"/>
</g>
</g>
</g>
</g>
<mask id="mask16_3_117" style="mask-type:luminance" maskUnits="userSpaceOnUse" x="-82" y="-386" width="480" height="460">
<path d="M-81.3333 -385.333H397.333V73.3333H-81.3333V-385.333Z" fill="white"/>
</mask>
<g mask="url(#mask16_3_117)">
<mask id="mask17_3_117" style="mask-type:luminance" maskUnits="userSpaceOnUse" x="-179" y="-428" width="623" height="633">
<path d="M254.417 -427.995L443.87 22.5885L10.7865 204.682L-178.667 -245.906L254.417 -427.995Z" fill="white"/>
</mask>
<g mask="url(#mask17_3_117)">
<mask id="mask18_3_117" style="mask-type:luminance" maskUnits="userSpaceOnUse" x="-179" y="-428" width="623" height="633">
<path d="M254.417 -427.995L443.87 22.5885L10.7865 204.682L-178.667 -245.906L254.417 -427.995Z" fill="white"/>
</mask>
<g mask="url(#mask18_3_117)">
<mask id="mask19_3_117" style="mask-type:luminance" maskUnits="userSpaceOnUse" x="-179" y="-428" width="623" height="633">
<path d="M254.417 -427.995L443.87 22.5885L10.7865 204.682L-178.667 -245.906L254.417 -427.995Z" fill="white"/>
</mask>
<g mask="url(#mask19_3_117)">
<path d="M-69.0208 -33.573C-62.1771 -55.198 -54.7812 -76.6511 -46.875 -97.9167C-36.4167 -126.036 -25.0364 -153.823 -12.4896 -181.073C1.0573 -210.495 15.9844 -239.344 33.1302 -266.844C49.1198 -292.484 67.125 -317.26 88.7604 -338.469C107.005 -356.354 128.469 -372.057 153.255 -379.323C177.583 -386.453 203 -383.323 225.734 -372.505C241.099 -365.188 255.703 -355.094 266.484 -341.823C278.677 -326.813 285.219 -308.151 286.729 -288.984C289.885 -248.828 272.099 -207.964 245.615 -178.484C241.375 -173.766 236.823 -169.333 232.031 -165.188C231.271 -164.531 231.76 -163.245 232.797 -163.365C264.495 -167.141 297.375 -164.099 326.391 -150.104C349.484 -138.969 369.068 -120.844 381.094 -98.125C392.151 -77.2396 396.406 -53.0157 392.609 -29.6615C388.609 -5.04172 375.443 17.1458 356.708 33.4374C332.188 54.7552 299.932 65.2499 268.094 68.9948C226.188 73.9166 183.49 67.3229 142.969 56.6041C99.5886 45.1302 57.6979 28.3177 17.0729 9.39578C-15.8854 -5.95837 -48.0625 -22.9376 -79.8489 -40.5782C-81.0052 -41.2188 -81.7656 -39.3126 -80.625 -38.6823C-44.5885 -18.6771 -8.04166 0.442657 29.5521 17.3645C70.1771 35.651 112.135 51.526 155.526 61.8645C195.672 71.427 237.906 76.2812 278.901 69.5416C309.312 64.5468 339.5 52.7552 362.109 31.2916C379.849 14.4531 391.698 -7.89587 395.062 -32.1667C398.292 -55.4844 393.484 -79.5417 382.302 -100.188C370.146 -122.641 350.714 -140.38 327.906 -151.641C299.521 -165.656 267.036 -169.016 235.849 -165.776C234.74 -165.661 233.635 -165.531 232.531 -165.401C232.786 -164.792 233.042 -164.188 233.297 -163.578C263.292 -189.516 284.167 -227.484 288.396 -267.057C290.396 -285.76 288.229 -305 280.703 -322.323C273.089 -339.833 260.083 -353.734 244.318 -364.234C222.578 -378.714 197.099 -387.469 170.786 -384.833C146.099 -382.365 123.521 -370.302 104.365 -355.063C81.6719 -337.005 62.8958 -314.271 46.3438 -290.604C27.9688 -264.328 12.2136 -236.26 -2.0677 -207.583C-15.9739 -179.661 -28.4167 -151.021 -39.8489 -122C-49.151 -98.3907 -57.7552 -74.5 -65.7239 -50.4063C-67.4896 -45.0625 -69.2187 -39.7136 -70.9167 -34.349C-71.3125 -33.0938 -69.4219 -32.3126 -69.0208 -33.573Z" fill="white"/>
</g>
</g>
</g>
</g>
<mask id="mask20_3_117" style="mask-type:luminance" maskUnits="userSpaceOnUse" x="-87" y="-380" width="477" height="470">
<path d="M-86.6667 -380H389.333V89.3333H-86.6667V-380Z" fill="white"/>
</mask>
<g mask="url(#mask20_3_117)">
<mask id="mask21_3_117" style="mask-type:luminance" maskUnits="userSpaceOnUse" x="-179" y="-428" width="623" height="633">
<path d="M254.417 -427.995L443.87 22.5885L10.7865 204.682L-178.667 -245.906L254.417 -427.995Z" fill="white"/>
</mask>
<g mask="url(#mask21_3_117)">
<mask id="mask22_3_117" style="mask-type:luminance" maskUnits="userSpaceOnUse" x="-179" y="-428" width="623" height="633">
<path d="M254.417 -427.995L443.87 22.5885L10.7865 204.682L-178.667 -245.906L254.417 -427.995Z" fill="white"/>
</mask>
<g mask="url(#mask22_3_117)">
<mask id="mask23_3_117" style="mask-type:luminance" maskUnits="userSpaceOnUse" x="-179" y="-428" width="623" height="633">
<path d="M254.417 -427.995L443.87 22.5885L10.7865 204.682L-178.667 -245.906L254.417 -427.995Z" fill="white"/>
</mask>
<g mask="url(#mask23_3_117)">
<path d="M-84.2031 -27.1875C-77.3177 -48.9427 -69.849 -70.5052 -61.8594 -91.875C-51.3542 -119.958 -39.9011 -147.703 -27.2761 -174.901C-13.6615 -204.234 1.34895 -232.984 18.5729 -260.37C34.6771 -285.974 52.8125 -310.677 74.526 -331.839C92.9635 -349.802 114.578 -365.526 139.484 -372.995C163.891 -380.318 189.516 -377.677 212.609 -367.266C227.75 -360.438 242.438 -350.885 253.651 -338.573C266.63 -324.313 274.422 -306.24 277.057 -287.229C282.542 -247.641 266.833 -206.536 242.5 -175.781C236.339 -168 229.448 -160.797 221.943 -154.307C221.182 -153.651 221.672 -152.359 222.708 -152.484C254.318 -156.245 287.068 -153.38 316.208 -139.901C339.443 -129.151 359.427 -111.568 372.177 -89.2865C383.849 -68.8802 389.104 -45.0052 386.542 -21.6042C383.885 2.68225 372.573 25.3177 355.354 42.5625C333.599 64.3541 304.12 76.5625 274.25 82.2604C234.01 89.9375 192.365 85.6458 152.807 76.2291C110.443 66.151 69.6771 49.9427 30.2812 31.5885C-6.94272 14.2448 -43.0313 -5.37503 -78.9271 -25.2865C-80.875 -26.3646 -82.8229 -27.4479 -84.7656 -28.5261C-85.9219 -29.1667 -86.6823 -27.2604 -85.5417 -26.625C-49.9792 -6.88025 -14.2969 12.6823 22.4479 30.1666C61.5417 48.7604 101.906 65.1718 143.859 76.0989C183.245 86.3593 224.661 91.6406 265.198 85.8489C296.141 81.4271 327.052 70.3229 350.859 49.5573C369.344 33.4375 382.391 11.7239 387.198 -12.3802C391.755 -35.2657 388.542 -59.3334 378.943 -80.5313C368.656 -103.266 351.094 -122.182 329.781 -135.01C303.99 -150.531 273.714 -156.609 243.859 -156.042C236.698 -155.906 229.552 -155.365 222.443 -154.516C222.698 -153.911 222.953 -153.302 223.208 -152.693C253.073 -178.521 273.969 -215.953 279.062 -255.214C281.469 -273.792 279.927 -292.974 273.24 -310.547C266.417 -328.479 254.016 -343.62 238.417 -354.667C216.521 -370.167 190.734 -380.453 163.583 -379.214C138.807 -378.078 115.693 -367.297 95.9479 -352.818C72.8333 -335.865 53.6302 -313.865 36.7552 -290.854C17.8906 -265.135 1.76561 -237.453 -12.8333 -209.125C-27.224 -181.188 -40.0625 -152.458 -51.8333 -123.323C-61.6354 -99.0573 -70.6719 -74.4792 -79.0156 -49.6719C-81.4427 -42.4584 -83.8073 -35.2188 -86.1042 -27.9636C-86.5 -26.7136 -84.6042 -25.9271 -84.2031 -27.1875Z" fill="white"/>
</g>
</g>
</g>
</g>
</g>
<defs>
<clipPath id="clip0_3_117">
<rect width="500" height="200" fill="white"/>
</clipPath>
</defs>
</svg>
