<svg width="152" height="152" viewBox="0 0 152 152" fill="none" xmlns="http://www.w3.org/2000/svg">
<mask id="mask0_5_46" style="mask-type:luminance" maskUnits="userSpaceOnUse" x="0" y="0" width="152" height="152">
<path d="M0.544266 0.868164H151.456V151.785H0.544266V0.868164Z" fill="white"/>
</mask>
<g mask="url(#mask0_5_46)">
<path d="M151.94 73.9359H134.695C133.242 43.9827 108.919 19.6598 78.9661 18.389V0.961914H73.5182V18.2067C43.5651 19.6598 19.2422 43.9827 17.9713 73.9359H0.544266V79.3838H17.7891C19.2422 109.337 43.5651 133.66 73.5182 134.931V152.175H78.9661V134.931C108.919 133.66 133.242 109.337 134.513 79.3838H151.758L151.94 73.9359ZM127.253 73.9359H116.727C115.456 53.6025 99.1172 37.4463 78.7839 35.9984V25.4671C104.924 26.9202 125.982 47.9775 127.253 73.9359ZM111.826 79.3838C110.555 96.8109 96.5755 110.79 78.9661 112.238V107.519H73.5182V112.238C56.0911 110.967 42.1172 96.9932 40.6641 79.3838H45.3828V73.9359H40.6641C41.9349 56.5088 55.9141 42.5296 73.5182 41.0817V45.8005H78.9661V41.0817C96.3932 42.3525 110.372 56.3265 111.826 73.9359H107.102V79.3838H111.826ZM73.5182 25.6494V36.1755C53.1901 37.4463 37.0339 53.7848 35.5807 74.1182H25.0495C26.5026 47.9775 47.5599 26.9202 73.5182 25.6494ZM25.2318 79.3838H35.763C37.0339 99.7119 53.3724 115.868 73.7005 117.321V127.853C47.5599 126.399 26.5026 105.342 25.2318 79.3838ZM78.9661 127.67V117.139C99.2995 115.868 115.456 99.5348 116.904 79.2015H127.435C125.982 105.342 104.924 126.399 78.9661 127.67Z" fill="#E2DAD4"/>
</g>
</svg>
