<svg width="153" height="152" viewBox="0 0 153 152" fill="none" xmlns="http://www.w3.org/2000/svg">
<mask id="mask0_5_109" style="mask-type:luminance" maskUnits="userSpaceOnUse" x="73" y="0" width="80" height="80">
<path d="M73.551 0.868164H152.218V79.4932H73.551V0.868164Z" fill="white"/>
</mask>
<g mask="url(#mask0_5_109)">
<path d="M144.509 0.868164H139.462V10.9619C139.462 11.3369 139.556 11.6807 139.702 12.0036L128.817 22.165C122.968 16.7952 115.202 13.488 106.66 13.488C88.577 13.488 73.8583 28.2015 73.8583 46.29C73.8583 64.3786 88.577 79.0921 106.66 79.0921C124.749 79.0921 139.462 64.3786 139.462 46.29C139.462 38.5557 136.759 31.4567 132.27 25.8421L145.504 13.488H152.082V8.44108H144.509V0.868164ZM134.421 46.29C134.421 61.5921 121.968 74.0452 106.66 74.0452C91.3583 74.0452 78.9052 61.5921 78.9052 46.29C78.9052 30.988 91.3583 18.5348 106.66 18.5348C113.749 18.5348 120.207 21.2275 125.119 25.613L121.421 29.0609C117.447 25.6546 112.296 23.5817 106.66 23.5817C94.1395 23.5817 83.952 33.7692 83.952 46.29C83.952 58.8109 94.1395 68.9984 106.66 68.9984C119.181 68.9984 129.374 58.8109 129.374 46.29C129.374 41.2171 127.681 36.54 124.858 32.7588L128.567 29.3005C132.218 33.9984 134.421 39.889 134.421 46.29ZM124.327 46.29C124.327 56.0296 116.4 63.9515 106.66 63.9515C96.9208 63.9515 88.9989 56.0296 88.9989 46.29C88.9989 36.5505 96.9208 28.6286 106.66 28.6286C110.843 28.6286 114.681 30.0921 117.707 32.5296L113.952 36.0296C111.89 34.5609 109.384 33.6755 106.66 33.6755C99.7072 33.6755 94.0458 39.3317 94.0458 46.29C94.0458 53.2484 99.7072 58.9046 106.66 58.9046C113.619 58.9046 119.28 53.2484 119.28 46.29C119.28 43.8786 118.567 41.6442 117.384 39.7327L121.15 36.2171C123.145 39.0765 124.327 42.5452 124.327 46.29ZM114.233 46.29C114.233 50.4619 110.837 53.8577 106.66 53.8577C102.488 53.8577 99.0927 50.4619 99.0927 46.29C99.0927 42.1182 102.488 38.7171 106.66 38.7171C107.921 38.7171 109.087 39.0557 110.129 39.6025L104.942 44.4463L108.384 48.1338L113.593 43.2692C113.999 44.1963 114.233 45.2119 114.233 46.29Z" fill="#E2DAD4"/>
</g>
<path d="M3.51978 118.759C0.0041526 121.774 -0.573974 127.035 2.20728 130.743C3.66561 132.691 5.88436 133.951 8.30103 134.217C8.61874 134.253 8.93644 134.269 9.25415 134.269C11.3479 134.269 13.4 133.524 14.9989 132.149L27.5614 121.384C27.8167 121.165 28.025 120.894 28.176 120.597L37.3635 102.217L42.4417 103.488L38.8739 110.623C37.8792 112.613 37.7177 114.868 38.4208 116.977C39.1187 119.087 40.6031 120.795 42.5927 121.79C46.5406 123.764 51.3531 122.311 53.5406 118.477L60.9104 105.576C61.2333 105.009 61.3271 104.347 61.1656 103.712L58.6448 93.618C58.4364 92.7795 57.8114 92.1076 56.9937 91.8368L44.2489 87.5868L47.5771 77.6024L55.0667 81.3472C55.9052 81.7638 56.9052 81.6857 57.6604 81.1388L70.3062 72.1128C72.1604 70.7847 73.3375 68.717 73.525 66.4461C73.7125 64.1701 72.8948 61.9409 71.2802 60.3211C68.5719 57.6128 64.2177 57.3003 61.15 59.6024L56.2489 63.2795L47.275 56.1024C51.1396 53.3576 53.6708 48.8576 53.6708 43.7638C53.6708 35.4149 46.8844 28.6284 38.5354 28.6284C30.1812 28.6284 23.3948 35.4149 23.3948 43.7638C23.3948 48.0868 25.2229 51.9826 28.1396 54.743L9.88957 61.5868C9.29582 61.8107 8.80624 62.2534 8.51978 62.8211L1.25936 77.3472C0.222901 79.4201 0.186443 81.8159 1.15519 83.9253C2.12394 86.0295 3.96769 87.5555 6.21249 88.118C9.69165 88.9878 13.2542 87.3576 14.8583 84.144L20.0875 73.6857L24.3896 72.6128L18.5042 88.3003C18.3062 88.842 18.2958 89.4357 18.4781 89.9826L20.7073 96.6753L16.2333 107.858L3.51978 118.759ZM38.5354 33.6753C44.0979 33.6753 48.6239 38.2013 48.6239 43.7638C48.6239 49.3315 44.0979 53.8576 38.5354 53.8576C32.9677 53.8576 28.4417 49.3315 28.4417 43.7638C28.4417 38.2013 32.9677 33.6753 38.5354 33.6753ZM20.6917 110.311L25.7385 97.6961C25.9573 97.1388 25.9781 96.5243 25.7906 95.9565L23.5458 89.2378L30.8062 69.8888C31.1344 69.0086 30.9469 68.019 30.3271 67.3211C29.6969 66.618 28.7385 66.3211 27.8271 66.5503L17.7385 69.0763C17.0198 69.2534 16.4208 69.7378 16.0927 70.394L10.3427 81.8888C9.80103 82.9722 8.60832 83.519 7.43644 83.2274C6.68644 83.0347 6.06144 82.5243 5.73853 81.8159C5.4104 81.1076 5.42603 80.3003 5.77499 79.6024L12.5927 65.967L31.4208 58.9045H42.6917L54.6187 68.4461C55.5146 69.1649 56.7854 69.1805 57.7125 68.493L64.176 63.644C65.2489 62.842 66.7646 62.9513 67.7125 63.8993C68.2854 64.467 68.5614 65.2274 68.4937 66.0347C68.426 66.8368 68.0302 67.5399 67.3687 68.0138L55.9625 76.1597L47.2333 71.7899C46.5771 71.4618 45.8114 71.4409 45.1344 71.717C44.4625 71.9982 43.9417 72.5607 43.7073 73.2482L38.6604 88.3888C38.2229 89.7118 38.9364 91.1388 40.2542 91.5815L54.0823 96.1909L56.025 103.957L49.1552 115.977C48.2958 117.488 46.4052 118.061 44.8479 117.279C44.0667 116.889 43.4781 116.217 43.2021 115.389C42.9312 114.556 42.9937 113.67 43.3844 112.889L48.3583 102.936C48.7021 102.248 48.7125 101.446 48.3948 100.753C48.0719 100.056 47.4573 99.5451 46.7125 99.3576L36.6187 96.8368C35.4677 96.5607 34.2802 97.0972 33.7542 98.1545L23.8844 117.884L11.7125 128.321C10.9104 129.009 9.89478 129.316 8.8479 129.207C7.79582 129.092 6.86873 128.566 6.23853 127.722C5.05103 126.134 5.29582 123.884 6.80103 122.597L19.9885 111.295C20.2958 111.024 20.5406 110.686 20.6917 110.311Z" fill="#E2DAD4"/>
<mask id="mask1_5_109" style="mask-type:luminance" maskUnits="userSpaceOnUse" x="38" y="128" width="21" height="24">
<path d="M38.8843 128.826H58.8843V151.785H38.8843V128.826Z" fill="white"/>
</mask>
<g mask="url(#mask1_5_109)">
<path d="M51.15 152.269V139.649L54.176 143.686L58.2125 140.66L50.6448 130.566C49.6917 129.295 47.5614 129.295 46.6083 130.566L39.0354 140.66L43.0771 143.686L46.1031 139.649V152.269H51.15Z" fill="#E2DAD4"/>
</g>
<mask id="mask2_5_109" style="mask-type:luminance" maskUnits="userSpaceOnUse" x="68" y="111" width="22" height="41">
<path d="M68.2176 111.493H89.5509V151.785H68.2176V111.493Z" fill="white"/>
</mask>
<g mask="url(#mask2_5_109)">
<path d="M76.8894 112.905L69.3165 122.998L73.353 126.024L76.3842 121.988V152.269H81.4311V121.988L84.4572 126.024L88.4936 122.998L80.9259 112.905C79.9728 111.634 77.8374 111.634 76.8894 112.905Z" fill="#E2DAD4"/>
</g>
<mask id="mask3_5_109" style="mask-type:luminance" maskUnits="userSpaceOnUse" x="98" y="91" width="21" height="61">
<path d="M98.8843 91.4932H118.884V151.785H98.8843V91.4932Z" fill="white"/>
</mask>
<g mask="url(#mask3_5_109)">
<path d="M111.707 152.269V101.8L114.739 105.837L118.775 102.811L111.202 92.717C110.254 91.4462 108.119 91.4462 107.166 92.717L99.5979 102.811L103.634 105.837L106.66 101.8V152.269H111.707Z" fill="#E2DAD4"/>
</g>
</svg>
