<svg width="152" height="152" viewBox="0 0 152 152" fill="none" xmlns="http://www.w3.org/2000/svg">
<mask id="mask0_5_148" style="mask-type:luminance" maskUnits="userSpaceOnUse" x="0" y="0" width="152" height="152">
<path d="M0.21106 0.868164H151.123V151.785H0.21106V0.868164Z" fill="white"/>
</mask>
<g mask="url(#mask0_5_148)">
<path d="M75.909 0.868164C34.1017 0.868164 0.21106 34.764 0.21106 76.5713C0.21106 118.373 34.1017 152.269 75.909 152.269C117.716 152.269 151.607 118.373 151.607 76.5713C151.607 34.764 117.716 0.868164 75.909 0.868164ZM75.909 142.806C39.3881 142.806 9.6746 113.092 9.6746 76.5713C9.6746 40.0452 39.3881 10.3317 75.909 10.3317C112.43 10.3317 142.143 40.0452 142.143 76.5713C142.143 113.092 112.43 142.806 75.909 142.806Z" fill="#E2DAD4"/>
</g>
<path d="M56.9819 58.04C56.9819 58.6597 56.9246 59.2743 56.8049 59.8837C56.6799 60.4931 56.5028 61.0868 56.2632 61.6597C56.0288 62.2327 55.7371 62.7795 55.3882 63.2952C55.0444 63.8108 54.6538 64.29 54.2111 64.7275C53.7736 65.1702 53.2944 65.5608 52.7788 65.9045C52.2632 66.2535 51.7163 66.5452 51.1434 66.7795C50.5705 67.0191 49.9767 67.1962 49.3674 67.3212C48.758 67.441 48.1434 67.5035 47.5236 67.5035C46.8986 67.5035 46.284 67.441 45.6746 67.3212C45.0653 67.1962 44.4767 67.0191 43.8986 66.7795C43.3257 66.5452 42.784 66.2535 42.2632 65.9045C41.7476 65.5608 41.2684 65.1702 40.8309 64.7275C40.3934 64.29 39.9976 63.8108 39.6538 63.2952C39.3101 62.7795 39.0184 62.2327 38.7788 61.6597C38.5444 61.0868 38.3621 60.4931 38.2424 59.8837C38.1226 59.2743 38.0601 58.6597 38.0601 58.04C38.0601 57.4202 38.1226 56.8004 38.2424 56.191C38.3621 55.5816 38.5444 54.9931 38.7788 54.4202C39.0184 53.842 39.3101 53.3004 39.6538 52.7795C39.9976 52.2639 40.3934 51.79 40.8309 51.3472C41.2684 50.9097 41.7476 50.5191 42.2632 50.1702C42.784 49.8264 43.3257 49.5348 43.8986 49.2952C44.4767 49.0608 45.0653 48.8785 45.6746 48.7587C46.284 48.6389 46.8986 48.5764 47.5236 48.5764C48.1434 48.5764 48.758 48.6389 49.3674 48.7587C49.9767 48.8785 50.5705 49.0608 51.1434 49.2952C51.7163 49.5348 52.2632 49.8264 52.7788 50.1702C53.2944 50.5191 53.7736 50.9097 54.2111 51.3472C54.6538 51.79 55.0444 52.2639 55.3882 52.7795C55.7371 53.3004 56.0288 53.842 56.2632 54.4202C56.5028 54.9931 56.6799 55.5816 56.8049 56.191C56.9246 56.8004 56.9819 57.4202 56.9819 58.04Z" fill="#E2DAD4"/>
<path d="M113.758 58.04C113.758 58.6597 113.695 59.2743 113.576 59.8837C113.456 60.4931 113.274 61.0868 113.039 61.6597C112.8 62.2327 112.508 62.7795 112.164 63.2952C111.82 63.8108 111.425 64.29 110.987 64.7275C110.55 65.1702 110.07 65.5608 109.555 65.9045C109.034 66.2535 108.492 66.5452 107.919 66.7795C107.341 67.0191 106.753 67.1962 106.143 67.3212C105.534 67.441 104.919 67.5035 104.294 67.5035C103.675 67.5035 103.06 67.441 102.451 67.3212C101.841 67.1962 101.248 67.0191 100.675 66.7795C100.102 66.5452 99.5548 66.2535 99.0392 65.9045C98.5236 65.5608 98.0444 65.1702 97.6069 64.7275C97.1642 64.29 96.7736 63.8108 96.4298 63.2952C96.0809 62.7795 95.7944 62.2327 95.5548 61.6597C95.3152 61.0868 95.1381 60.4931 95.0131 59.8837C94.8934 59.2743 94.8361 58.6597 94.8361 58.04C94.8361 57.4202 94.8934 56.8004 95.0131 56.191C95.1381 55.5816 95.3152 54.9931 95.5548 54.4202C95.7944 53.842 96.0809 53.3004 96.4298 52.7795C96.7736 52.2639 97.1642 51.79 97.6069 51.3472C98.0444 50.9097 98.5236 50.5191 99.0392 50.1702C99.5548 49.8264 100.102 49.5348 100.675 49.2952C101.248 49.0608 101.841 48.8785 102.451 48.7587C103.06 48.6389 103.675 48.5764 104.294 48.5764C104.919 48.5764 105.534 48.6389 106.143 48.7587C106.753 48.8785 107.341 49.0608 107.919 49.2952C108.492 49.5348 109.034 49.8264 109.555 50.1702C110.07 50.5191 110.55 50.9097 110.987 51.3472C111.425 51.79 111.82 52.2639 112.164 52.7795C112.508 53.3004 112.8 53.842 113.039 54.4202C113.274 54.9931 113.456 55.5816 113.576 56.191C113.695 56.8004 113.758 57.4202 113.758 58.04Z" fill="#E2DAD4"/>
<path d="M111.248 91.3421C108.925 90.0869 106.018 90.9463 104.758 93.2692C104.675 93.4358 95.5704 109.821 75.909 109.821C55.9871 109.821 47.4507 94.014 47.1069 93.3629C45.8986 91.014 43.0132 90.0869 40.6642 91.29C38.31 92.5036 37.3829 95.389 38.5965 97.7379C39.0496 98.6233 50.0236 119.399 75.909 119.399C101.211 119.399 112.706 98.7119 113.18 97.8317C114.44 95.5036 113.576 92.6025 111.248 91.3421Z" fill="#E2DAD4"/>
</svg>
