<svg width="172" height="152" viewBox="0 0 172 152" fill="none" xmlns="http://www.w3.org/2000/svg">
<mask id="mask0_5_161" style="mask-type:luminance" maskUnits="userSpaceOnUse" x="0" y="0" width="172" height="152">
<path d="M0.549561 0.868164H171.451V151.785H0.549561V0.868164Z" fill="white"/>
</mask>
<g mask="url(#mask0_5_161)">
<path d="M85.9714 152.233L84.1589 151.004C83.9558 150.868 63.1485 136.655 42.6433 117.009C30.5496 105.389 20.8829 94.1806 13.9089 83.6598C5.05998 70.1962 0.549561 57.7275 0.549561 46.6545C0.549561 21.441 21.086 0.904541 46.2996 0.904541C55.6641 0.904541 64.7162 3.77433 72.4402 9.24308C78.0444 13.2066 82.6225 18.2587 85.9714 24.0712C89.3204 18.2275 93.8985 13.1702 99.5027 9.24308C107.221 3.77433 116.279 0.904541 125.638 0.904541C150.857 0.904541 171.388 21.441 171.388 46.6545V46.691C171.289 57.691 166.742 70.0608 157.862 83.4879C150.888 94.0139 141.253 105.217 129.159 116.868C108.69 136.587 87.9871 150.868 87.7787 151.004L85.9714 152.233ZM46.2996 7.29517C24.6069 7.29517 6.94019 24.9566 6.94019 46.6545C6.94019 56.4618 11.0756 67.7014 19.2423 80.0712C25.9037 90.1858 35.2631 101.05 47.0183 112.326C63.6589 128.28 80.5391 140.618 85.9714 144.441C91.4037 140.582 108.18 128.181 124.784 112.191C136.503 100.879 145.831 90.0504 152.529 79.9358C160.695 67.566 164.899 56.3941 164.966 46.6545C164.966 24.9566 147.3 7.32642 125.607 7.32642C109.513 7.32642 94.7839 17.5087 88.9089 32.6806L85.935 40.4045L82.9975 32.6806C77.1225 17.5087 62.3933 7.29517 46.2996 7.29517Z" fill="#E2DAD4"/>
</g>
</svg>
